<?xml version="1.0" encoding="UTF-8" standalone="no"?><svg xmlns="http://www.w3.org/2000/svg" xmlns:xlink="http://www.w3.org/1999/xlink" contentStyleType="text/css" height="660px" preserveAspectRatio="none" style="width:566px;height:660px;background:#FFFFFF;" version="1.1" viewBox="0 0 566 660" width="566px" zoomAndPan="magnify"><defs/><g><text fill="#000000" font-family="Serif" font-size="10" lengthAdjust="spacing" textLength="10" x="21" y="23.5">32</text><text fill="#000000" font-family="Serif" font-size="10" lengthAdjust="spacing" textLength="10" x="49" y="23.5">33</text><text fill="#000000" font-family="Serif" font-size="10" lengthAdjust="spacing" textLength="10" x="77" y="23.5">34</text><text fill="#000000" font-family="Serif" font-size="10" lengthAdjust="spacing" textLength="10" x="105" y="23.5">35</text><text fill="#000000" font-family="Serif" font-size="10" lengthAdjust="spacing" textLength="10" x="133" y="23.5">36</text><text fill="#000000" font-family="Serif" font-size="10" lengthAdjust="spacing" textLength="10" x="161" y="23.5">37</text><text fill="#000000" font-family="Serif" font-size="10" lengthAdjust="spacing" textLength="10" x="189" y="23.5">38</text><text fill="#000000" font-family="Serif" font-size="10" lengthAdjust="spacing" textLength="10" x="217" y="23.5">39</text><text fill="#000000" font-family="Serif" font-size="10" lengthAdjust="spacing" textLength="10" x="245" y="23.5">40</text><text fill="#000000" font-family="Serif" font-size="10" lengthAdjust="spacing" textLength="10" x="273" y="23.5">41</text><text fill="#000000" font-family="Serif" font-size="10" lengthAdjust="spacing" textLength="10" x="301" y="23.5">42</text><text fill="#000000" font-family="Serif" font-size="10" lengthAdjust="spacing" textLength="10" x="329" y="23.5">43</text><text fill="#000000" font-family="Serif" font-size="10" lengthAdjust="spacing" textLength="10" x="357" y="23.5">44</text><text fill="#000000" font-family="Serif" font-size="10" lengthAdjust="spacing" textLength="10" x="385" y="23.5">45</text><text fill="#000000" font-family="Serif" font-size="10" lengthAdjust="spacing" textLength="10" x="413" y="23.5">46</text><text fill="#000000" font-family="Serif" font-size="10" lengthAdjust="spacing" textLength="10" x="441" y="23.5">47</text><text fill="#000000" font-family="Serif" font-size="10" lengthAdjust="spacing" textLength="10" x="469" y="23.5">48</text><line style="stroke:#C0C0C0;stroke-width:1.0;" x1="16" x2="16" y1="16" y2="642.3848"/><line style="stroke:#C0C0C0;stroke-width:1.0;" x1="44" x2="44" y1="16" y2="642.3848"/><line style="stroke:#C0C0C0;stroke-width:1.0;" x1="72" x2="72" y1="16" y2="642.3848"/><line style="stroke:#C0C0C0;stroke-width:1.0;" x1="100" x2="100" y1="16" y2="642.3848"/><line style="stroke:#C0C0C0;stroke-width:1.0;" x1="128" x2="128" y1="16" y2="642.3848"/><line style="stroke:#C0C0C0;stroke-width:1.0;" x1="156" x2="156" y1="16" y2="642.3848"/><line style="stroke:#C0C0C0;stroke-width:1.0;" x1="184" x2="184" y1="16" y2="642.3848"/><line style="stroke:#C0C0C0;stroke-width:1.0;" x1="212" x2="212" y1="16" y2="642.3848"/><line style="stroke:#C0C0C0;stroke-width:1.0;" x1="240" x2="240" y1="16" y2="642.3848"/><line style="stroke:#C0C0C0;stroke-width:1.0;" x1="268" x2="268" y1="16" y2="642.3848"/><line style="stroke:#C0C0C0;stroke-width:1.0;" x1="296" x2="296" y1="16" y2="642.3848"/><line style="stroke:#C0C0C0;stroke-width:1.0;" x1="324" x2="324" y1="16" y2="642.3848"/><line style="stroke:#C0C0C0;stroke-width:1.0;" x1="352" x2="352" y1="16" y2="642.3848"/><line style="stroke:#C0C0C0;stroke-width:1.0;" x1="380" x2="380" y1="16" y2="642.3848"/><line style="stroke:#C0C0C0;stroke-width:1.0;" x1="408" x2="408" y1="16" y2="642.3848"/><line style="stroke:#C0C0C0;stroke-width:1.0;" x1="436" x2="436" y1="16" y2="642.3848"/><line style="stroke:#C0C0C0;stroke-width:1.0;" x1="464" x2="464" y1="16" y2="642.3848"/><line style="stroke:#C0C0C0;stroke-width:1.0;" x1="488" x2="488" y1="16" y2="642.3848"/><line style="stroke:#C0C0C0;stroke-width:1.0;" x1="0" x2="0" y1="0" y2="16"/><line style="stroke:#C0C0C0;stroke-width:1.0;" x1="112" x2="112" y1="0" y2="16"/><text fill="#000000" font-family="Serif" font-size="12" font-weight="bold" lengthAdjust="spacing" textLength="49" x="31.5" y="9">Aug 2022</text><line style="stroke:#C0C0C0;stroke-width:1.0;" x1="232" x2="232" y1="0" y2="16"/><text fill="#000000" font-family="Serif" font-size="12" font-weight="bold" lengthAdjust="spacing" textLength="46" x="149" y="9">Sep 2022</text><line style="stroke:#C0C0C0;stroke-width:1.0;" x1="356" x2="356" y1="0" y2="16"/><text fill="#000000" font-family="Serif" font-size="12" font-weight="bold" lengthAdjust="spacing" textLength="45" x="271.5" y="9">Oct 2022</text><line style="stroke:#C0C0C0;stroke-width:1.0;" x1="476" x2="476" y1="0" y2="16"/><text fill="#000000" font-family="Serif" font-size="12" font-weight="bold" lengthAdjust="spacing" textLength="48" x="392" y="9">Nov 2022</text><line style="stroke:#C0C0C0;stroke-width:1.0;" x1="488" x2="488" y1="0" y2="16"/><text fill="#000000" font-family="Serif" font-size="12" font-weight="bold" lengthAdjust="spacing" textLength="19" x="476" y="9">Dec</text><line style="stroke:#C0C0C0;stroke-width:1.0;" x1="0" x2="488" y1="0" y2="0"/><line style="stroke:#C0C0C0;stroke-width:1.0;" x1="0" x2="488" y1="16" y2="16"/><line style="stroke:#C0C0C0;stroke-width:1.0;" x1="0" x2="488" y1="29" y2="29"/><line style="stroke:#181818;stroke-width:1.5;" x1="51" x2="51" y1="143.7754" y2="225.7178"/><line style="stroke:#181818;stroke-width:1.5;" x1="51" x2="59" y1="225.7178" y2="225.7178"/><polygon fill="#181818" points="55,221.7178,55,225.7178,55,229.7178,59,225.7178" style="stroke:#181818;stroke-width:1.5;"/><line style="stroke:#008000;stroke-width:1.5;stroke-dasharray:7.0,7.0;" x1="219" x2="219" y1="232.1953" y2="381.958"/><line style="stroke:#008000;stroke-width:1.5;stroke-dasharray:7.0,7.0;" x1="219" x2="227" y1="381.958" y2="381.958"/><polygon fill="#008000" points="223,377.958,223,381.958,223,385.958,227,381.958" style="stroke:#008000;stroke-width:1.5;"/><line style="stroke:#00FFFF;stroke-width:1.5;stroke-dasharray:7.0,7.0;" x1="331" x2="331" y1="388.4355" y2="490.9775"/><line style="stroke:#00FFFF;stroke-width:1.5;stroke-dasharray:7.0,7.0;" x1="331" x2="339" y1="490.9775" y2="490.9775"/><polygon fill="#00FFFF" points="335,486.9775,335,490.9775,335,494.9775,339,490.9775" style="stroke:#00FFFF;stroke-width:1.5;"/><line style="stroke:#0000FF;stroke-width:1.5;stroke-dasharray:7.0,7.0;" x1="443" x2="443" y1="497.4551" y2="596.3525"/><line style="stroke:#0000FF;stroke-width:1.5;stroke-dasharray:7.0,7.0;" x1="443" x2="451" y1="596.3525" y2="596.3525"/><polygon fill="#0000FF" points="447,592.3525,447,596.3525,447,600.3525,451,596.3525" style="stroke:#0000FF;stroke-width:1.5;"/><line style="stroke:#181818;stroke-width:1.0;" x1="0" x2="5" y1="45.4775" y2="45.4775"/><line style="stroke:#181818;stroke-width:1.0;" x1="81" x2="487" y1="45.4775" y2="45.4775"/><rect fill="#008000" height="12.9551" style="stroke:none;stroke-width:1.0;" width="56" x="2" y="63.9551"/><line style="stroke:#008000;stroke-width:1.0;" x1="2" x2="58" y1="63.9551" y2="63.9551"/><line style="stroke:#008000;stroke-width:1.0;" x1="2" x2="58" y1="76.9102" y2="76.9102"/><line style="stroke:#008000;stroke-width:1.0;" x1="2" x2="2" y1="63.9551" y2="76.9102"/><line style="stroke:#008000;stroke-width:1.0;" x1="58" x2="58" y1="63.9551" y2="76.9102"/><rect fill="#0000FF" height="12.9551" style="stroke:none;stroke-width:1.0;" width="428" x="58" y="80.9102"/><line style="stroke:#0000FF;stroke-width:1.0;" x1="58" x2="486" y1="80.9102" y2="80.9102"/><line style="stroke:#0000FF;stroke-width:1.0;" x1="58" x2="486" y1="93.8652" y2="93.8652"/><line style="stroke:#0000FF;stroke-width:1.0;" x1="58" x2="58" y1="80.9102" y2="93.8652"/><line style="stroke:#0000FF;stroke-width:1.0;" x1="486" x2="486" y1="80.9102" y2="93.8652"/><line style="stroke:#181818;stroke-width:1.0;" x1="0" x2="5" y1="112.3428" y2="112.3428"/><line style="stroke:#181818;stroke-width:1.0;" x1="45" x2="487" y1="112.3428" y2="112.3428"/><rect fill="#FF0000" height="12.9551" style="stroke:none;stroke-width:1.0;" width="56" x="2" y="130.8203"/><line style="stroke:#FF0000;stroke-width:1.0;" x1="2" x2="58" y1="130.8203" y2="130.8203"/><line style="stroke:#FF0000;stroke-width:1.0;" x1="2" x2="58" y1="143.7754" y2="143.7754"/><line style="stroke:#FF0000;stroke-width:1.0;" x1="2" x2="2" y1="130.8203" y2="143.7754"/><line style="stroke:#FF0000;stroke-width:1.0;" x1="58" x2="58" y1="130.8203" y2="143.7754"/><rect fill="#E2E2F0" height="12.9551" style="stroke:none;stroke-width:1.0;" width="1" x="2" y="147.7754"/><line style="stroke:#181818;stroke-width:1.0;" x1="2" x2="3" y1="147.7754" y2="147.7754"/><line style="stroke:#181818;stroke-width:1.0;" x1="2" x2="3" y1="160.7305" y2="160.7305"/><line style="stroke:#181818;stroke-width:1.0;" x1="2" x2="2" y1="147.7754" y2="160.7305"/><line style="stroke:#181818;stroke-width:1.0;" x1="3" x2="3" y1="147.7754" y2="160.7305"/><rect fill="#E2E2F0" height="12.9551" style="stroke:none;stroke-width:1.0;" width="1" x="30" y="164.7305"/><line style="stroke:#181818;stroke-width:1.0;" x1="30" x2="31" y1="164.7305" y2="164.7305"/><line style="stroke:#181818;stroke-width:1.0;" x1="30" x2="31" y1="177.6855" y2="177.6855"/><line style="stroke:#181818;stroke-width:1.0;" x1="30" x2="30" y1="164.7305" y2="177.6855"/><line style="stroke:#181818;stroke-width:1.0;" x1="31" x2="31" y1="164.7305" y2="177.6855"/><path d="M56,196.6406 L56,217.2402 L226,217.2402 L226,206.6406 L216,196.6406 L56,196.6406 " fill="#FEFFDD" style="stroke:#181818;stroke-width:0.5;"/><path d="M216,196.6406 L216,206.6406 L226,206.6406 L216,196.6406 " fill="#FEFFDD" style="stroke:#181818;stroke-width:0.5;"/><text fill="#000000" font-family="sans-serif" font-size="9" lengthAdjust="spacing" textLength="149" x="62" y="210.3418">Entrega: Termo de Compromisso</text><rect fill="#E2E2F0" height="12.9551" style="stroke:none;stroke-width:1.0;" width="1" x="58" y="181.6855"/><line style="stroke:#181818;stroke-width:1.0;" x1="58" x2="59" y1="181.6855" y2="181.6855"/><line style="stroke:#181818;stroke-width:1.0;" x1="58" x2="59" y1="194.6406" y2="194.6406"/><line style="stroke:#181818;stroke-width:1.0;" x1="58" x2="58" y1="181.6855" y2="194.6406"/><line style="stroke:#181818;stroke-width:1.0;" x1="59" x2="59" y1="181.6855" y2="194.6406"/><rect fill="#E2E2F0" height="12.9551" style="stroke:none;stroke-width:1.0;" width="164" x="62" y="219.2402"/><line style="stroke:#181818;stroke-width:1.0;" x1="62" x2="226" y1="219.2402" y2="219.2402"/><line style="stroke:#181818;stroke-width:1.0;" x1="62" x2="226" y1="232.1953" y2="232.1953"/><line style="stroke:#181818;stroke-width:1.0;" x1="62" x2="62" y1="219.2402" y2="232.1953"/><line style="stroke:#181818;stroke-width:1.0;" x1="226" x2="226" y1="219.2402" y2="232.1953"/><rect fill="#E2E2F0" height="12.9551" style="stroke:none;stroke-width:1.0;" width="1" x="86" y="236.1953"/><line style="stroke:#181818;stroke-width:1.0;" x1="86" x2="87" y1="236.1953" y2="236.1953"/><line style="stroke:#181818;stroke-width:1.0;" x1="86" x2="87" y1="249.1504" y2="249.1504"/><line style="stroke:#181818;stroke-width:1.0;" x1="86" x2="86" y1="236.1953" y2="249.1504"/><line style="stroke:#181818;stroke-width:1.0;" x1="87" x2="87" y1="236.1953" y2="249.1504"/><rect fill="#E2E2F0" height="12.9551" style="stroke:none;stroke-width:1.0;" width="1" x="114" y="253.1504"/><line style="stroke:#181818;stroke-width:1.0;" x1="114" x2="115" y1="253.1504" y2="253.1504"/><line style="stroke:#181818;stroke-width:1.0;" x1="114" x2="115" y1="266.1055" y2="266.1055"/><line style="stroke:#181818;stroke-width:1.0;" x1="114" x2="114" y1="253.1504" y2="266.1055"/><line style="stroke:#181818;stroke-width:1.0;" x1="115" x2="115" y1="253.1504" y2="266.1055"/><rect fill="#E2E2F0" height="12.9551" style="stroke:none;stroke-width:1.0;" width="1" x="142" y="270.1055"/><line style="stroke:#181818;stroke-width:1.0;" x1="142" x2="143" y1="270.1055" y2="270.1055"/><line style="stroke:#181818;stroke-width:1.0;" x1="142" x2="143" y1="283.0605" y2="283.0605"/><line style="stroke:#181818;stroke-width:1.0;" x1="142" x2="142" y1="270.1055" y2="283.0605"/><line style="stroke:#181818;stroke-width:1.0;" x1="143" x2="143" y1="270.1055" y2="283.0605"/><rect fill="#E2E2F0" height="12.9551" style="stroke:none;stroke-width:1.0;" width="1" x="170" y="287.0605"/><line style="stroke:#181818;stroke-width:1.0;" x1="170" x2="171" y1="287.0605" y2="287.0605"/><line style="stroke:#181818;stroke-width:1.0;" x1="170" x2="171" y1="300.0156" y2="300.0156"/><line style="stroke:#181818;stroke-width:1.0;" x1="170" x2="170" y1="287.0605" y2="300.0156"/><line style="stroke:#181818;stroke-width:1.0;" x1="171" x2="171" y1="287.0605" y2="300.0156"/><rect fill="#E2E2F0" height="12.9551" style="stroke:none;stroke-width:1.0;" width="1" x="198" y="304.0156"/><line style="stroke:#181818;stroke-width:1.0;" x1="198" x2="199" y1="304.0156" y2="304.0156"/><line style="stroke:#181818;stroke-width:1.0;" x1="198" x2="199" y1="316.9707" y2="316.9707"/><line style="stroke:#181818;stroke-width:1.0;" x1="198" x2="198" y1="304.0156" y2="316.9707"/><line style="stroke:#181818;stroke-width:1.0;" x1="199" x2="199" y1="304.0156" y2="316.9707"/><path d="M224,335.9258 L224,356.5254 L366,356.5254 L366,345.9258 L356,335.9258 L224,335.9258 " fill="#FEFFDD" style="stroke:#181818;stroke-width:0.5;"/><path d="M356,335.9258 L356,345.9258 L366,345.9258 L356,335.9258 " fill="#FEFFDD" style="stroke:#181818;stroke-width:0.5;"/><text fill="#000000" font-family="sans-serif" font-size="9" lengthAdjust="spacing" textLength="118" x="230" y="349.627">Entrega: Pré-projeto (BCC)</text><rect fill="#E2E2F0" height="12.9551" style="stroke:none;stroke-width:1.0;" width="1" x="226" y="320.9707"/><line style="stroke:#181818;stroke-width:1.0;" x1="226" x2="227" y1="320.9707" y2="320.9707"/><line style="stroke:#181818;stroke-width:1.0;" x1="226" x2="227" y1="333.9258" y2="333.9258"/><line style="stroke:#181818;stroke-width:1.0;" x1="226" x2="226" y1="320.9707" y2="333.9258"/><line style="stroke:#181818;stroke-width:1.0;" x1="227" x2="227" y1="320.9707" y2="333.9258"/><rect fill="#E2E2F0" height="12.9551" style="stroke:none;stroke-width:1.0;" width="1" x="254" y="358.5254"/><line style="stroke:#181818;stroke-width:1.0;" x1="254" x2="255" y1="358.5254" y2="358.5254"/><line style="stroke:#181818;stroke-width:1.0;" x1="254" x2="255" y1="371.4805" y2="371.4805"/><line style="stroke:#181818;stroke-width:1.0;" x1="254" x2="254" y1="358.5254" y2="371.4805"/><line style="stroke:#181818;stroke-width:1.0;" x1="255" x2="255" y1="358.5254" y2="371.4805"/><rect fill="#E2E2F0" height="12.9551" style="stroke:none;stroke-width:1.0;" width="108" x="230" y="375.4805"/><line style="stroke:#181818;stroke-width:1.0;" x1="230" x2="338" y1="375.4805" y2="375.4805"/><line style="stroke:#181818;stroke-width:1.0;" x1="230" x2="338" y1="388.4355" y2="388.4355"/><line style="stroke:#181818;stroke-width:1.0;" x1="230" x2="230" y1="375.4805" y2="388.4355"/><line style="stroke:#181818;stroke-width:1.0;" x1="338" x2="338" y1="375.4805" y2="388.4355"/><path d="M280,407.3906 L280,427.9902 L361,427.9902 L361,417.3906 L351,407.3906 L280,407.3906 " fill="#FEFFDD" style="stroke:#181818;stroke-width:0.5;"/><path d="M351,407.3906 L351,417.3906 L361,417.3906 L351,407.3906 " fill="#FEFFDD" style="stroke:#181818;stroke-width:0.5;"/><text fill="#000000" font-family="sans-serif" font-size="9" lengthAdjust="spacing" textLength="57" x="286" y="421.0918">Bancas (BCC)</text><rect fill="#E2E2F0" height="12.9551" style="stroke:none;stroke-width:1.0;" width="1" x="282" y="392.4355"/><line style="stroke:#181818;stroke-width:1.0;" x1="282" x2="283" y1="392.4355" y2="392.4355"/><line style="stroke:#181818;stroke-width:1.0;" x1="282" x2="283" y1="405.3906" y2="405.3906"/><line style="stroke:#181818;stroke-width:1.0;" x1="282" x2="282" y1="392.4355" y2="405.3906"/><line style="stroke:#181818;stroke-width:1.0;" x1="283" x2="283" y1="392.4355" y2="405.3906"/><path d="M308,444.9453 L308,465.5449 L389,465.5449 L389,454.9453 L379,444.9453 L308,444.9453 " fill="#FEFFDD" style="stroke:#181818;stroke-width:0.5;"/><path d="M379,444.9453 L379,454.9453 L389,454.9453 L379,444.9453 " fill="#FEFFDD" style="stroke:#181818;stroke-width:0.5;"/><text fill="#000000" font-family="sans-serif" font-size="9" lengthAdjust="spacing" textLength="57" x="314" y="458.6465">Bancas (BCC)</text><rect fill="#E2E2F0" height="12.9551" style="stroke:none;stroke-width:1.0;" width="1" x="310" y="429.9902"/><line style="stroke:#181818;stroke-width:1.0;" x1="310" x2="311" y1="429.9902" y2="429.9902"/><line style="stroke:#181818;stroke-width:1.0;" x1="310" x2="311" y1="442.9453" y2="442.9453"/><line style="stroke:#181818;stroke-width:1.0;" x1="310" x2="310" y1="429.9902" y2="442.9453"/><line style="stroke:#181818;stroke-width:1.0;" x1="311" x2="311" y1="429.9902" y2="442.9453"/><rect fill="#E2E2F0" height="12.9551" style="stroke:none;stroke-width:1.0;" width="1" x="338" y="467.5449"/><line style="stroke:#181818;stroke-width:1.0;" x1="338" x2="339" y1="467.5449" y2="467.5449"/><line style="stroke:#181818;stroke-width:1.0;" x1="338" x2="339" y1="480.5" y2="480.5"/><line style="stroke:#181818;stroke-width:1.0;" x1="338" x2="338" y1="467.5449" y2="480.5"/><line style="stroke:#181818;stroke-width:1.0;" x1="339" x2="339" y1="467.5449" y2="480.5"/><rect fill="#E2E2F0" height="12.9551" style="stroke:none;stroke-width:1.0;" width="108" x="342" y="484.5"/><line style="stroke:#181818;stroke-width:1.0;" x1="342" x2="450" y1="484.5" y2="484.5"/><line style="stroke:#181818;stroke-width:1.0;" x1="342" x2="450" y1="497.4551" y2="497.4551"/><line style="stroke:#181818;stroke-width:1.0;" x1="342" x2="342" y1="484.5" y2="497.4551"/><line style="stroke:#181818;stroke-width:1.0;" x1="450" x2="450" y1="484.5" y2="497.4551"/><rect fill="#E2E2F0" height="12.9551" style="stroke:none;stroke-width:1.0;" width="1" x="366" y="501.4551"/><line style="stroke:#181818;stroke-width:1.0;" x1="366" x2="367" y1="501.4551" y2="501.4551"/><line style="stroke:#181818;stroke-width:1.0;" x1="366" x2="367" y1="514.4102" y2="514.4102"/><line style="stroke:#181818;stroke-width:1.0;" x1="366" x2="366" y1="501.4551" y2="514.4102"/><line style="stroke:#181818;stroke-width:1.0;" x1="367" x2="367" y1="501.4551" y2="514.4102"/><rect fill="#E2E2F0" height="12.9551" style="stroke:none;stroke-width:1.0;" width="1" x="394" y="518.4102"/><line style="stroke:#181818;stroke-width:1.0;" x1="394" x2="395" y1="518.4102" y2="518.4102"/><line style="stroke:#181818;stroke-width:1.0;" x1="394" x2="395" y1="531.3652" y2="531.3652"/><line style="stroke:#181818;stroke-width:1.0;" x1="394" x2="394" y1="518.4102" y2="531.3652"/><line style="stroke:#181818;stroke-width:1.0;" x1="395" x2="395" y1="518.4102" y2="531.3652"/><rect fill="#E2E2F0" height="12.9551" style="stroke:none;stroke-width:1.0;" width="1" x="422" y="535.3652"/><line style="stroke:#181818;stroke-width:1.0;" x1="422" x2="423" y1="535.3652" y2="535.3652"/><line style="stroke:#181818;stroke-width:1.0;" x1="422" x2="423" y1="548.3203" y2="548.3203"/><line style="stroke:#181818;stroke-width:1.0;" x1="422" x2="422" y1="535.3652" y2="548.3203"/><line style="stroke:#181818;stroke-width:1.0;" x1="423" x2="423" y1="535.3652" y2="548.3203"/><path d="M448,567.2754 L448,587.875 L544,587.875 L544,577.2754 L534,567.2754 L448,567.2754 " fill="#FEFFDD" style="stroke:#181818;stroke-width:0.5;"/><path d="M534,567.2754 L534,577.2754 L544,577.2754 L534,567.2754 " fill="#FEFFDD" style="stroke:#181818;stroke-width:0.5;"/><text fill="#000000" font-family="sans-serif" font-size="9" lengthAdjust="spacing" textLength="72" x="454" y="580.9766">Entrega: Projeto</text><rect fill="#E2E2F0" height="12.9551" style="stroke:none;stroke-width:1.0;" width="1" x="450" y="552.3203"/><line style="stroke:#181818;stroke-width:1.0;" x1="450" x2="451" y1="552.3203" y2="552.3203"/><line style="stroke:#181818;stroke-width:1.0;" x1="450" x2="451" y1="565.2754" y2="565.2754"/><line style="stroke:#181818;stroke-width:1.0;" x1="450" x2="450" y1="552.3203" y2="565.2754"/><line style="stroke:#181818;stroke-width:1.0;" x1="451" x2="451" y1="552.3203" y2="565.2754"/><path d="M452,604.8301 L452,625.4297 L564,625.4297 L564,614.8301 L554,604.8301 L452,604.8301 " fill="#FEFFDD" style="stroke:#181818;stroke-width:0.5;"/><path d="M554,604.8301 L554,614.8301 L564,614.8301 L554,604.8301 " fill="#FEFFDD" style="stroke:#181818;stroke-width:0.5;"/><text fill="#000000" font-family="sans-serif" font-size="9" lengthAdjust="spacing" textLength="91" x="458" y="618.5313">Avaliações: Projetos</text><rect fill="#E2E2F0" height="12.9551" style="stroke:none;stroke-width:1.0;" width="32" x="454" y="589.875"/><line style="stroke:#181818;stroke-width:1.0;" x1="454" x2="486" y1="589.875" y2="589.875"/><line style="stroke:#181818;stroke-width:1.0;" x1="454" x2="486" y1="602.8301" y2="602.8301"/><line style="stroke:#181818;stroke-width:1.0;" x1="454" x2="454" y1="589.875" y2="602.8301"/><line style="stroke:#181818;stroke-width:1.0;" x1="486" x2="486" y1="589.875" y2="602.8301"/><rect fill="#E2E2F0" height="12.9551" style="stroke:none;stroke-width:1.0;" width="1" x="486" y="627.4297"/><line style="stroke:#181818;stroke-width:1.0;" x1="486" x2="487" y1="627.4297" y2="627.4297"/><line style="stroke:#181818;stroke-width:1.0;" x1="486" x2="487" y1="640.3848" y2="640.3848"/><line style="stroke:#181818;stroke-width:1.0;" x1="486" x2="486" y1="627.4297" y2="640.3848"/><line style="stroke:#181818;stroke-width:1.0;" x1="487" x2="487" y1="627.4297" y2="640.3848"/><text fill="#000000" font-family="sans-serif" font-size="11" lengthAdjust="spacing" textLength="66" x="10" y="49.6348">cronograma</text><text fill="#000000" font-family="sans-serif" font-size="11" lengthAdjust="spacing" textLength="63" x="62" y="74.5898">completado</text><text fill="#000000" font-family="sans-serif" font-size="11" lengthAdjust="spacing" textLength="23" x="62" y="91.5449">falta</text><text fill="#000000" font-family="sans-serif" font-size="11" lengthAdjust="spacing" textLength="30" x="10" y="116.5">Aulas</text><text fill="#000000" font-family="sans-serif" font-size="11" lengthAdjust="spacing" textLength="35" x="6" y="141.4551">Termo</text><text fill="#000000" font-family="sans-serif" font-size="11" lengthAdjust="spacing" textLength="38" x="6" y="158.4102">Aula01</text><text fill="#000000" font-family="sans-serif" font-size="11" lengthAdjust="spacing" textLength="38" x="34" y="175.3652">Aula02</text><text fill="#000000" font-family="sans-serif" font-size="11" lengthAdjust="spacing" textLength="38" x="62" y="192.3203">Aula03</text><text fill="#000000" font-family="sans-serif" font-size="11" lengthAdjust="spacing" textLength="95" x="66" y="229.875">Pré-projeto (BCC)</text><text fill="#000000" font-family="sans-serif" font-size="11" lengthAdjust="spacing" textLength="38" x="90" y="246.8301">Aula04</text><text fill="#000000" font-family="sans-serif" font-size="11" lengthAdjust="spacing" textLength="38" x="118" y="263.7852">Aula05</text><text fill="#000000" font-family="sans-serif" font-size="11" lengthAdjust="spacing" textLength="38" x="146" y="280.7402">Aula06</text><text fill="#000000" font-family="sans-serif" font-size="11" lengthAdjust="spacing" textLength="38" x="174" y="297.6953">Aula07</text><text fill="#000000" font-family="sans-serif" font-size="11" lengthAdjust="spacing" textLength="38" x="202" y="314.6504">Aula08</text><text fill="#000000" font-family="sans-serif" font-size="11" lengthAdjust="spacing" textLength="38" x="230" y="331.6055">Aula09</text><text fill="#000000" font-family="sans-serif" font-size="11" lengthAdjust="spacing" textLength="38" x="258" y="369.1602">Aula10</text><text fill="#000000" font-family="sans-serif" font-size="11" lengthAdjust="spacing" textLength="31" x="234" y="386.1152">Banca</text><text fill="#000000" font-family="sans-serif" font-size="11" lengthAdjust="spacing" textLength="38" x="286" y="403.0703">Aula11</text><text fill="#000000" font-family="sans-serif" font-size="11" lengthAdjust="spacing" textLength="38" x="314" y="440.625">Aula12</text><text fill="#000000" font-family="sans-serif" font-size="11" lengthAdjust="spacing" textLength="38" x="342" y="478.1797">Aula13</text><text fill="#000000" font-family="sans-serif" font-size="11" lengthAdjust="spacing" textLength="38" x="346" y="495.1348">Projeto</text><text fill="#000000" font-family="sans-serif" font-size="11" lengthAdjust="spacing" textLength="38" x="370" y="512.0898">Aula14</text><text fill="#000000" font-family="sans-serif" font-size="11" lengthAdjust="spacing" textLength="38" x="398" y="529.0449">Aula15</text><text fill="#000000" font-family="sans-serif" font-size="11" lengthAdjust="spacing" textLength="38" x="426" y="546">Aula16</text><text fill="#000000" font-family="sans-serif" font-size="11" lengthAdjust="spacing" textLength="38" x="454" y="562.9551">Aula17</text><text fill="#000000" font-family="sans-serif" font-size="11" lengthAdjust="spacing" textLength="25" x="490" y="600.5098">Final</text><text fill="#000000" font-family="sans-serif" font-size="11" lengthAdjust="spacing" textLength="38" x="490" y="638.0645">Aula18</text><line style="stroke:#C0C0C0;stroke-width:1.0;" x1="0" x2="488" y1="642.3848" y2="642.3848"/><line style="stroke:#C0C0C0;stroke-width:1.0;" x1="0" x2="0" y1="642.3848" y2="658.3848"/><line style="stroke:#C0C0C0;stroke-width:1.0;" x1="112" x2="112" y1="642.3848" y2="658.3848"/><text fill="#000000" font-family="Serif" font-size="12" font-weight="bold" lengthAdjust="spacing" textLength="49" x="31.5" y="651.3848">Aug 2022</text><line style="stroke:#C0C0C0;stroke-width:1.0;" x1="232" x2="232" y1="642.3848" y2="658.3848"/><text fill="#000000" font-family="Serif" font-size="12" font-weight="bold" lengthAdjust="spacing" textLength="46" x="149" y="651.3848">Sep 2022</text><line style="stroke:#C0C0C0;stroke-width:1.0;" x1="356" x2="356" y1="642.3848" y2="658.3848"/><text fill="#000000" font-family="Serif" font-size="12" font-weight="bold" lengthAdjust="spacing" textLength="45" x="271.5" y="651.3848">Oct 2022</text><line style="stroke:#C0C0C0;stroke-width:1.0;" x1="476" x2="476" y1="642.3848" y2="658.3848"/><text fill="#000000" font-family="Serif" font-size="12" font-weight="bold" lengthAdjust="spacing" textLength="48" x="392" y="651.3848">Nov 2022</text><line style="stroke:#C0C0C0;stroke-width:1.0;" x1="488" x2="488" y1="642.3848" y2="658.3848"/><text fill="#000000" font-family="Serif" font-size="12" font-weight="bold" lengthAdjust="spacing" textLength="19" x="476" y="651.3848">Dec</text><line style="stroke:#C0C0C0;stroke-width:1.0;" x1="0" x2="488" y1="658.3848" y2="658.3848"/><!--MD5=[2ad52d464059334c487f31e8ed4d83bc]
@startgantt cronograma_BCC

/'TODO: tentar usar variáveis do sistema: <https://blog.jdriven.com/2017/01/plantuml-pleasantness-using-current-date/>  '/
/'atualizar'/
!$dataInicio = "2022-08-04"
!$dataFim  = "2022-12-03"
!$Aula01 = $dataInicio
!$Aula02 = "2022-08-11"
!$Aula03 = "2022-08-18"
!$Aula04 = "2022-08-25"
!$Aula05 = "2022-09-01"
!$Aula06 = "2022-09-08"
!$Aula07 = "2022-09-15"
!$Aula08 = "2022-09-22"
!$Aula09 = "2022-09-29"
!$Aula10 = "2022-10-06"
!$Aula11 = "2022-10-13"
!$Aula12 = "2022-10-20"
!$Aula13 = "2022-10-27"
!$Aula14 = "2022-11-03"
!$Aula15 = "2022-11-10"
!$Aula16 = "2022-11-17"
!$Aula17 = "2022-11-24"
!$Aula18 = "2022-12-01"
!$Aula18 = $dataFim

!$dataAtual  = $Aula03
/'atualizar'/

ganttscale weekly

Project starts $dataInicio

- - cronograma - - 
[completado] is colored in green
[completado] starts $dataInicio and ends $dataAtual
[falta] starts $dataAtual and ends $dataFim
[falta] is colored in blue

- - Aulas - - 
[Termo] is colored in Red
[Termo]  starts $Aula01 and ends $Aula03
[Aula01] starts $Aula01 and ends $Aula01
[Aula02] starts $Aula02 and ends $Aula02
[Aula03] starts $Aula03 and ends $Aula03
note bottom
Entrega: Termo de Compromisso
end note
[Pré-projeto (BCC)] starts at [Termo]'s end
[Pré-projeto (BCC)] ends $Aula09
[Aula04] starts $Aula04 and ends $Aula04
[Aula05] starts $Aula05 and ends $Aula05
[Aula06] starts $Aula06 and ends $Aula06
[Aula07] starts $Aula07 and ends $Aula07
[Aula08] starts $Aula08 and ends $Aula08
[Aula09] starts $Aula09 and ends $Aula09
note bottom
Entrega: Pré-projeto (BCC) 
end note
[Aula10] starts $Aula10 and ends $Aula10
[Banca] starts at [Pré-projeto (BCC)]'s end with green dashed link
[Banca] ends $Aula13
[Aula11] starts $Aula11 and ends $Aula11
note bottom
Bancas (BCC) 
end note
[Aula12] starts $Aula12 and ends $Aula12
note bottom
Bancas (BCC) 
end note
[Aula13] starts $Aula13 and ends $Aula13
[Projeto] starts at [Banca]'s end with cyan dashed link
[Projeto] ends $Aula17
[Aula14] starts $Aula14 and ends $Aula14
[Aula15] starts $Aula15 and ends $Aula15
[Aula16] starts $Aula16 and ends $Aula16
[Aula17] starts $Aula17 and ends $Aula17
note bottom
Entrega: Projeto 
end note
[Final] starts at [Projeto]'s end with blue dashed link
[Final] ends $Aula18
note bottom
Avaliações: Projetos
end note
[Aula18] starts $Aula18 and ends $Aula18

@endgantt

@startgantt cronograma_BCC



ganttscale weekly

Project starts 2022-08-04

- - cronograma - - 
[completado] is colored in green
[completado] starts 2022-08-04 and ends 2022-08-18
[falta] starts 2022-08-18 and ends 2022-12-03
[falta] is colored in blue

- - Aulas - - 
[Termo] is colored in Red
[Termo]  starts 2022-08-04 and ends 2022-08-18
[Aula01] starts 2022-08-04 and ends 2022-08-04
[Aula02] starts 2022-08-11 and ends 2022-08-11
[Aula03] starts 2022-08-18 and ends 2022-08-18
note bottom
Entrega: Termo de Compromisso
end note
[Pré-projeto (BCC)] starts at [Termo]'s end
[Pré-projeto (BCC)] ends 2022-09-29
[Aula04] starts 2022-08-25 and ends 2022-08-25
[Aula05] starts 2022-09-01 and ends 2022-09-01
[Aula06] starts 2022-09-08 and ends 2022-09-08
[Aula07] starts 2022-09-15 and ends 2022-09-15
[Aula08] starts 2022-09-22 and ends 2022-09-22
[Aula09] starts 2022-09-29 and ends 2022-09-29
note bottom
Entrega: Pré-projeto (BCC) 
end note
[Aula10] starts 2022-10-06 and ends 2022-10-06
[Banca] starts at [Pré-projeto (BCC)]'s end with green dashed link
[Banca] ends 2022-10-27
[Aula11] starts 2022-10-13 and ends 2022-10-13
note bottom
Bancas (BCC) 
end note
[Aula12] starts 2022-10-20 and ends 2022-10-20
note bottom
Bancas (BCC) 
end note
[Aula13] starts 2022-10-27 and ends 2022-10-27
[Projeto] starts at [Banca]'s end with cyan dashed link
[Projeto] ends 2022-11-24
[Aula14] starts 2022-11-03 and ends 2022-11-03
[Aula15] starts 2022-11-10 and ends 2022-11-10
[Aula16] starts 2022-11-17 and ends 2022-11-17
[Aula17] starts 2022-11-24 and ends 2022-11-24
note bottom
Entrega: Projeto 
end note
[Final] starts at [Projeto]'s end with blue dashed link
[Final] ends 2022-12-03
note bottom
Avaliações: Projetos
end note
[Aula18] starts 2022-12-03 and ends 2022-12-03

@endgantt

PlantUML version 1.2022.5(Sat Apr 30 07:55:52 BRT 2022)
(GPL source distribution)
Java Runtime: OpenJDK Runtime Environment
JVM: OpenJDK 64-Bit Server VM
Default Encoding: UTF-8
Language: en
Country: BR
--></g></svg>