<?xml version="1.0" encoding="UTF-8" standalone="no"?><svg xmlns="http://www.w3.org/2000/svg" xmlns:xlink="http://www.w3.org/1999/xlink" contentStyleType="text/css" height="602px" preserveAspectRatio="none" style="width:546px;height:602px;background:#FFFFFF;" version="1.1" viewBox="0 0 546 602" width="546px" zoomAndPan="magnify"><defs/><g><text fill="#000000" font-family="Serif" font-size="10" lengthAdjust="spacing" textLength="10" x="29" y="23.5">32</text><text fill="#000000" font-family="Serif" font-size="10" lengthAdjust="spacing" textLength="10" x="57" y="23.5">33</text><text fill="#000000" font-family="Serif" font-size="10" lengthAdjust="spacing" textLength="10" x="85" y="23.5">34</text><text fill="#000000" font-family="Serif" font-size="10" lengthAdjust="spacing" textLength="10" x="113" y="23.5">35</text><text fill="#000000" font-family="Serif" font-size="10" lengthAdjust="spacing" textLength="10" x="141" y="23.5">36</text><text fill="#000000" font-family="Serif" font-size="10" lengthAdjust="spacing" textLength="10" x="169" y="23.5">37</text><text fill="#000000" font-family="Serif" font-size="10" lengthAdjust="spacing" textLength="10" x="197" y="23.5">38</text><text fill="#000000" font-family="Serif" font-size="10" lengthAdjust="spacing" textLength="10" x="225" y="23.5">39</text><text fill="#000000" font-family="Serif" font-size="10" lengthAdjust="spacing" textLength="10" x="253" y="23.5">40</text><text fill="#000000" font-family="Serif" font-size="10" lengthAdjust="spacing" textLength="10" x="281" y="23.5">41</text><text fill="#000000" font-family="Serif" font-size="10" lengthAdjust="spacing" textLength="10" x="309" y="23.5">42</text><text fill="#000000" font-family="Serif" font-size="10" lengthAdjust="spacing" textLength="10" x="337" y="23.5">43</text><text fill="#000000" font-family="Serif" font-size="10" lengthAdjust="spacing" textLength="10" x="365" y="23.5">44</text><text fill="#000000" font-family="Serif" font-size="10" lengthAdjust="spacing" textLength="10" x="393" y="23.5">45</text><text fill="#000000" font-family="Serif" font-size="10" lengthAdjust="spacing" textLength="10" x="421" y="23.5">46</text><text fill="#000000" font-family="Serif" font-size="10" lengthAdjust="spacing" textLength="10" x="449" y="23.5">47</text><text fill="#000000" font-family="Serif" font-size="10" lengthAdjust="spacing" textLength="10" x="477" y="23.5">48</text><line style="stroke:#C0C0C0;stroke-width:1.0;" x1="24" x2="24" y1="16" y2="584.2305"/><line style="stroke:#C0C0C0;stroke-width:1.0;" x1="52" x2="52" y1="16" y2="584.2305"/><line style="stroke:#C0C0C0;stroke-width:1.0;" x1="80" x2="80" y1="16" y2="584.2305"/><line style="stroke:#C0C0C0;stroke-width:1.0;" x1="108" x2="108" y1="16" y2="584.2305"/><line style="stroke:#C0C0C0;stroke-width:1.0;" x1="136" x2="136" y1="16" y2="584.2305"/><line style="stroke:#C0C0C0;stroke-width:1.0;" x1="164" x2="164" y1="16" y2="584.2305"/><line style="stroke:#C0C0C0;stroke-width:1.0;" x1="192" x2="192" y1="16" y2="584.2305"/><line style="stroke:#C0C0C0;stroke-width:1.0;" x1="220" x2="220" y1="16" y2="584.2305"/><line style="stroke:#C0C0C0;stroke-width:1.0;" x1="248" x2="248" y1="16" y2="584.2305"/><line style="stroke:#C0C0C0;stroke-width:1.0;" x1="276" x2="276" y1="16" y2="584.2305"/><line style="stroke:#C0C0C0;stroke-width:1.0;" x1="304" x2="304" y1="16" y2="584.2305"/><line style="stroke:#C0C0C0;stroke-width:1.0;" x1="332" x2="332" y1="16" y2="584.2305"/><line style="stroke:#C0C0C0;stroke-width:1.0;" x1="360" x2="360" y1="16" y2="584.2305"/><line style="stroke:#C0C0C0;stroke-width:1.0;" x1="388" x2="388" y1="16" y2="584.2305"/><line style="stroke:#C0C0C0;stroke-width:1.0;" x1="416" x2="416" y1="16" y2="584.2305"/><line style="stroke:#C0C0C0;stroke-width:1.0;" x1="444" x2="444" y1="16" y2="584.2305"/><line style="stroke:#C0C0C0;stroke-width:1.0;" x1="472" x2="472" y1="16" y2="584.2305"/><line style="stroke:#C0C0C0;stroke-width:1.0;" x1="496" x2="496" y1="16" y2="584.2305"/><line style="stroke:#C0C0C0;stroke-width:1.0;" x1="0" x2="0" y1="0" y2="16"/><line style="stroke:#C0C0C0;stroke-width:1.0;" x1="120" x2="120" y1="0" y2="16"/><text fill="#000000" font-family="Serif" font-size="12" font-weight="bold" lengthAdjust="spacing" textLength="49" x="35.5" y="9">Aug 2022</text><line style="stroke:#C0C0C0;stroke-width:1.0;" x1="240" x2="240" y1="0" y2="16"/><text fill="#000000" font-family="Serif" font-size="12" font-weight="bold" lengthAdjust="spacing" textLength="46" x="157" y="9">Sep 2022</text><line style="stroke:#C0C0C0;stroke-width:1.0;" x1="364" x2="364" y1="0" y2="16"/><text fill="#000000" font-family="Serif" font-size="12" font-weight="bold" lengthAdjust="spacing" textLength="45" x="279.5" y="9">Oct 2022</text><line style="stroke:#C0C0C0;stroke-width:1.0;" x1="484" x2="484" y1="0" y2="16"/><text fill="#000000" font-family="Serif" font-size="12" font-weight="bold" lengthAdjust="spacing" textLength="48" x="400" y="9">Nov 2022</text><line style="stroke:#C0C0C0;stroke-width:1.0;" x1="496" x2="496" y1="0" y2="16"/><text fill="#000000" font-family="Serif" font-size="12" font-weight="bold" lengthAdjust="spacing" textLength="19" x="484" y="9">Dec</text><line style="stroke:#C0C0C0;stroke-width:1.0;" x1="0" x2="496" y1="0" y2="0"/><line style="stroke:#C0C0C0;stroke-width:1.0;" x1="0" x2="496" y1="16" y2="16"/><line style="stroke:#C0C0C0;stroke-width:1.0;" x1="0" x2="496" y1="29" y2="29"/><line style="stroke:#181818;stroke-width:1.5;" x1="51" x2="51" y1="143.7754" y2="225.7178"/><line style="stroke:#181818;stroke-width:1.5;" x1="51" x2="59" y1="225.7178" y2="225.7178"/><polygon fill="#181818" points="55,221.7178,55,225.7178,55,229.7178,59,225.7178" style="stroke:#181818;stroke-width:1.5;"/><line style="stroke:#008000;stroke-width:1.5;stroke-dasharray:7.0,7.0;" x1="247" x2="247" y1="232.1953" y2="381.958"/><line style="stroke:#008000;stroke-width:1.5;stroke-dasharray:7.0,7.0;" x1="247" x2="255" y1="381.958" y2="381.958"/><polygon fill="#008000" points="251,377.958,251,381.958,251,385.958,255,381.958" style="stroke:#008000;stroke-width:1.5;"/><line style="stroke:#0000FF;stroke-width:1.5;stroke-dasharray:7.0,7.0;" x1="415" x2="415" y1="388.4355" y2="538.1982"/><line style="stroke:#0000FF;stroke-width:1.5;stroke-dasharray:7.0,7.0;" x1="415" x2="423" y1="538.1982" y2="538.1982"/><polygon fill="#0000FF" points="419,534.1982,419,538.1982,419,542.1982,423,538.1982" style="stroke:#0000FF;stroke-width:1.5;"/><line style="stroke:#181818;stroke-width:1.0;" x1="0" x2="5" y1="45.4775" y2="45.4775"/><line style="stroke:#181818;stroke-width:1.0;" x1="81" x2="495" y1="45.4775" y2="45.4775"/><rect fill="#008000" height="12.9551" style="stroke:none;stroke-width:1.0;" width="1" x="2" y="63.9551"/><line style="stroke:#008000;stroke-width:1.0;" x1="2" x2="3" y1="63.9551" y2="63.9551"/><line style="stroke:#008000;stroke-width:1.0;" x1="2" x2="3" y1="76.9102" y2="76.9102"/><line style="stroke:#008000;stroke-width:1.0;" x1="2" x2="2" y1="63.9551" y2="76.9102"/><line style="stroke:#008000;stroke-width:1.0;" x1="3" x2="3" y1="63.9551" y2="76.9102"/><rect fill="#0000FF" height="12.9551" style="stroke:none;stroke-width:1.0;" width="492" x="2" y="80.9102"/><line style="stroke:#0000FF;stroke-width:1.0;" x1="2" x2="494" y1="80.9102" y2="80.9102"/><line style="stroke:#0000FF;stroke-width:1.0;" x1="2" x2="494" y1="93.8652" y2="93.8652"/><line style="stroke:#0000FF;stroke-width:1.0;" x1="2" x2="2" y1="80.9102" y2="93.8652"/><line style="stroke:#0000FF;stroke-width:1.0;" x1="494" x2="494" y1="80.9102" y2="93.8652"/><line style="stroke:#181818;stroke-width:1.0;" x1="0" x2="5" y1="112.3428" y2="112.3428"/><line style="stroke:#181818;stroke-width:1.0;" x1="45" x2="495" y1="112.3428" y2="112.3428"/><rect fill="#FF0000" height="12.9551" style="stroke:none;stroke-width:1.0;" width="56" x="2" y="130.8203"/><line style="stroke:#FF0000;stroke-width:1.0;" x1="2" x2="58" y1="130.8203" y2="130.8203"/><line style="stroke:#FF0000;stroke-width:1.0;" x1="2" x2="58" y1="143.7754" y2="143.7754"/><line style="stroke:#FF0000;stroke-width:1.0;" x1="2" x2="2" y1="130.8203" y2="143.7754"/><line style="stroke:#FF0000;stroke-width:1.0;" x1="58" x2="58" y1="130.8203" y2="143.7754"/><rect fill="#E2E2F0" height="12.9551" style="stroke:none;stroke-width:1.0;" width="1" x="2" y="147.7754"/><line style="stroke:#181818;stroke-width:1.0;" x1="2" x2="3" y1="147.7754" y2="147.7754"/><line style="stroke:#181818;stroke-width:1.0;" x1="2" x2="3" y1="160.7305" y2="160.7305"/><line style="stroke:#181818;stroke-width:1.0;" x1="2" x2="2" y1="147.7754" y2="160.7305"/><line style="stroke:#181818;stroke-width:1.0;" x1="3" x2="3" y1="147.7754" y2="160.7305"/><rect fill="#E2E2F0" height="12.9551" style="stroke:none;stroke-width:1.0;" width="1" x="30" y="164.7305"/><line style="stroke:#181818;stroke-width:1.0;" x1="30" x2="31" y1="164.7305" y2="164.7305"/><line style="stroke:#181818;stroke-width:1.0;" x1="30" x2="31" y1="177.6855" y2="177.6855"/><line style="stroke:#181818;stroke-width:1.0;" x1="30" x2="30" y1="164.7305" y2="177.6855"/><line style="stroke:#181818;stroke-width:1.0;" x1="31" x2="31" y1="164.7305" y2="177.6855"/><path d="M56,196.6406 L56,217.2402 L226,217.2402 L226,206.6406 L216,196.6406 L56,196.6406 " fill="#FEFFDD" style="stroke:#181818;stroke-width:0.5;"/><path d="M216,196.6406 L216,206.6406 L226,206.6406 L216,196.6406 " fill="#FEFFDD" style="stroke:#181818;stroke-width:0.5;"/><text fill="#000000" font-family="sans-serif" font-size="9" lengthAdjust="spacing" textLength="149" x="62" y="210.3418">Entrega: Termo de Compromisso</text><rect fill="#E2E2F0" height="12.9551" style="stroke:none;stroke-width:1.0;" width="1" x="58" y="181.6855"/><line style="stroke:#181818;stroke-width:1.0;" x1="58" x2="59" y1="181.6855" y2="181.6855"/><line style="stroke:#181818;stroke-width:1.0;" x1="58" x2="59" y1="194.6406" y2="194.6406"/><line style="stroke:#181818;stroke-width:1.0;" x1="58" x2="58" y1="181.6855" y2="194.6406"/><line style="stroke:#181818;stroke-width:1.0;" x1="59" x2="59" y1="181.6855" y2="194.6406"/><rect fill="#E2E2F0" height="12.9551" style="stroke:none;stroke-width:1.0;" width="192" x="62" y="219.2402"/><line style="stroke:#181818;stroke-width:1.0;" x1="62" x2="254" y1="219.2402" y2="219.2402"/><line style="stroke:#181818;stroke-width:1.0;" x1="62" x2="254" y1="232.1953" y2="232.1953"/><line style="stroke:#181818;stroke-width:1.0;" x1="62" x2="62" y1="219.2402" y2="232.1953"/><line style="stroke:#181818;stroke-width:1.0;" x1="254" x2="254" y1="219.2402" y2="232.1953"/><rect fill="#E2E2F0" height="12.9551" style="stroke:none;stroke-width:1.0;" width="1" x="86" y="236.1953"/><line style="stroke:#181818;stroke-width:1.0;" x1="86" x2="87" y1="236.1953" y2="236.1953"/><line style="stroke:#181818;stroke-width:1.0;" x1="86" x2="87" y1="249.1504" y2="249.1504"/><line style="stroke:#181818;stroke-width:1.0;" x1="86" x2="86" y1="236.1953" y2="249.1504"/><line style="stroke:#181818;stroke-width:1.0;" x1="87" x2="87" y1="236.1953" y2="249.1504"/><rect fill="#E2E2F0" height="12.9551" style="stroke:none;stroke-width:1.0;" width="1" x="114" y="253.1504"/><line style="stroke:#181818;stroke-width:1.0;" x1="114" x2="115" y1="253.1504" y2="253.1504"/><line style="stroke:#181818;stroke-width:1.0;" x1="114" x2="115" y1="266.1055" y2="266.1055"/><line style="stroke:#181818;stroke-width:1.0;" x1="114" x2="114" y1="253.1504" y2="266.1055"/><line style="stroke:#181818;stroke-width:1.0;" x1="115" x2="115" y1="253.1504" y2="266.1055"/><rect fill="#E2E2F0" height="12.9551" style="stroke:none;stroke-width:1.0;" width="1" x="142" y="270.1055"/><line style="stroke:#181818;stroke-width:1.0;" x1="142" x2="143" y1="270.1055" y2="270.1055"/><line style="stroke:#181818;stroke-width:1.0;" x1="142" x2="143" y1="283.0605" y2="283.0605"/><line style="stroke:#181818;stroke-width:1.0;" x1="142" x2="142" y1="270.1055" y2="283.0605"/><line style="stroke:#181818;stroke-width:1.0;" x1="143" x2="143" y1="270.1055" y2="283.0605"/><rect fill="#E2E2F0" height="12.9551" style="stroke:none;stroke-width:1.0;" width="1" x="170" y="287.0605"/><line style="stroke:#181818;stroke-width:1.0;" x1="170" x2="171" y1="287.0605" y2="287.0605"/><line style="stroke:#181818;stroke-width:1.0;" x1="170" x2="171" y1="300.0156" y2="300.0156"/><line style="stroke:#181818;stroke-width:1.0;" x1="170" x2="170" y1="287.0605" y2="300.0156"/><line style="stroke:#181818;stroke-width:1.0;" x1="171" x2="171" y1="287.0605" y2="300.0156"/><rect fill="#E2E2F0" height="12.9551" style="stroke:none;stroke-width:1.0;" width="1" x="198" y="304.0156"/><line style="stroke:#181818;stroke-width:1.0;" x1="198" x2="199" y1="304.0156" y2="304.0156"/><line style="stroke:#181818;stroke-width:1.0;" x1="198" x2="199" y1="316.9707" y2="316.9707"/><line style="stroke:#181818;stroke-width:1.0;" x1="198" x2="198" y1="304.0156" y2="316.9707"/><line style="stroke:#181818;stroke-width:1.0;" x1="199" x2="199" y1="304.0156" y2="316.9707"/><rect fill="#E2E2F0" height="12.9551" style="stroke:none;stroke-width:1.0;" width="1" x="226" y="320.9707"/><line style="stroke:#181818;stroke-width:1.0;" x1="226" x2="227" y1="320.9707" y2="320.9707"/><line style="stroke:#181818;stroke-width:1.0;" x1="226" x2="227" y1="333.9258" y2="333.9258"/><line style="stroke:#181818;stroke-width:1.0;" x1="226" x2="226" y1="320.9707" y2="333.9258"/><line style="stroke:#181818;stroke-width:1.0;" x1="227" x2="227" y1="320.9707" y2="333.9258"/><path d="M252,352.8809 L252,373.4805 L390,373.4805 L390,362.8809 L380,352.8809 L252,352.8809 " fill="#FEFFDD" style="stroke:#181818;stroke-width:0.5;"/><path d="M380,352.8809 L380,362.8809 L390,362.8809 L380,352.8809 " fill="#FEFFDD" style="stroke:#181818;stroke-width:0.5;"/><text fill="#000000" font-family="sans-serif" font-size="9" lengthAdjust="spacing" textLength="114" x="258" y="366.582">Entrega: Pré-projeto (SIS)</text><rect fill="#E2E2F0" height="12.9551" style="stroke:none;stroke-width:1.0;" width="1" x="254" y="337.9258"/><line style="stroke:#181818;stroke-width:1.0;" x1="254" x2="255" y1="337.9258" y2="337.9258"/><line style="stroke:#181818;stroke-width:1.0;" x1="254" x2="255" y1="350.8809" y2="350.8809"/><line style="stroke:#181818;stroke-width:1.0;" x1="254" x2="254" y1="337.9258" y2="350.8809"/><line style="stroke:#181818;stroke-width:1.0;" x1="255" x2="255" y1="337.9258" y2="350.8809"/><rect fill="#E2E2F0" height="12.9551" style="stroke:none;stroke-width:1.0;" width="164" x="258" y="375.4805"/><line style="stroke:#181818;stroke-width:1.0;" x1="258" x2="422" y1="375.4805" y2="375.4805"/><line style="stroke:#181818;stroke-width:1.0;" x1="258" x2="422" y1="388.4355" y2="388.4355"/><line style="stroke:#181818;stroke-width:1.0;" x1="258" x2="258" y1="375.4805" y2="388.4355"/><line style="stroke:#181818;stroke-width:1.0;" x1="422" x2="422" y1="375.4805" y2="388.4355"/><rect fill="#E2E2F0" height="12.9551" style="stroke:none;stroke-width:1.0;" width="1" x="282" y="392.4355"/><line style="stroke:#181818;stroke-width:1.0;" x1="282" x2="283" y1="392.4355" y2="392.4355"/><line style="stroke:#181818;stroke-width:1.0;" x1="282" x2="283" y1="405.3906" y2="405.3906"/><line style="stroke:#181818;stroke-width:1.0;" x1="282" x2="282" y1="392.4355" y2="405.3906"/><line style="stroke:#181818;stroke-width:1.0;" x1="283" x2="283" y1="392.4355" y2="405.3906"/><rect fill="#E2E2F0" height="12.9551" style="stroke:none;stroke-width:1.0;" width="1" x="310" y="409.3906"/><line style="stroke:#181818;stroke-width:1.0;" x1="310" x2="311" y1="409.3906" y2="409.3906"/><line style="stroke:#181818;stroke-width:1.0;" x1="310" x2="311" y1="422.3457" y2="422.3457"/><line style="stroke:#181818;stroke-width:1.0;" x1="310" x2="310" y1="409.3906" y2="422.3457"/><line style="stroke:#181818;stroke-width:1.0;" x1="311" x2="311" y1="409.3906" y2="422.3457"/><rect fill="#E2E2F0" height="12.9551" style="stroke:none;stroke-width:1.0;" width="1" x="338" y="426.3457"/><line style="stroke:#181818;stroke-width:1.0;" x1="338" x2="339" y1="426.3457" y2="426.3457"/><line style="stroke:#181818;stroke-width:1.0;" x1="338" x2="339" y1="439.3008" y2="439.3008"/><line style="stroke:#181818;stroke-width:1.0;" x1="338" x2="338" y1="426.3457" y2="439.3008"/><line style="stroke:#181818;stroke-width:1.0;" x1="339" x2="339" y1="426.3457" y2="439.3008"/><rect fill="#E2E2F0" height="12.9551" style="stroke:none;stroke-width:1.0;" width="1" x="366" y="443.3008"/><line style="stroke:#181818;stroke-width:1.0;" x1="366" x2="367" y1="443.3008" y2="443.3008"/><line style="stroke:#181818;stroke-width:1.0;" x1="366" x2="367" y1="456.2559" y2="456.2559"/><line style="stroke:#181818;stroke-width:1.0;" x1="366" x2="366" y1="443.3008" y2="456.2559"/><line style="stroke:#181818;stroke-width:1.0;" x1="367" x2="367" y1="443.3008" y2="456.2559"/><rect fill="#E2E2F0" height="12.9551" style="stroke:none;stroke-width:1.0;" width="1" x="394" y="460.2559"/><line style="stroke:#181818;stroke-width:1.0;" x1="394" x2="395" y1="460.2559" y2="460.2559"/><line style="stroke:#181818;stroke-width:1.0;" x1="394" x2="395" y1="473.2109" y2="473.2109"/><line style="stroke:#181818;stroke-width:1.0;" x1="394" x2="394" y1="460.2559" y2="473.2109"/><line style="stroke:#181818;stroke-width:1.0;" x1="395" x2="395" y1="460.2559" y2="473.2109"/><rect fill="#E2E2F0" height="12.9551" style="stroke:none;stroke-width:1.0;" width="1" x="422" y="477.2109"/><line style="stroke:#181818;stroke-width:1.0;" x1="422" x2="423" y1="477.2109" y2="477.2109"/><line style="stroke:#181818;stroke-width:1.0;" x1="422" x2="423" y1="490.166" y2="490.166"/><line style="stroke:#181818;stroke-width:1.0;" x1="422" x2="422" y1="477.2109" y2="490.166"/><line style="stroke:#181818;stroke-width:1.0;" x1="423" x2="423" y1="477.2109" y2="490.166"/><path d="M448,509.1211 L448,529.7207 L544,529.7207 L544,519.1211 L534,509.1211 L448,509.1211 " fill="#FEFFDD" style="stroke:#181818;stroke-width:0.5;"/><path d="M534,509.1211 L534,519.1211 L544,519.1211 L534,509.1211 " fill="#FEFFDD" style="stroke:#181818;stroke-width:0.5;"/><text fill="#000000" font-family="sans-serif" font-size="9" lengthAdjust="spacing" textLength="72" x="454" y="522.8223">Entrega: Projeto</text><rect fill="#E2E2F0" height="12.9551" style="stroke:none;stroke-width:1.0;" width="1" x="450" y="494.166"/><line style="stroke:#181818;stroke-width:1.0;" x1="450" x2="451" y1="494.166" y2="494.166"/><line style="stroke:#181818;stroke-width:1.0;" x1="450" x2="451" y1="507.1211" y2="507.1211"/><line style="stroke:#181818;stroke-width:1.0;" x1="450" x2="450" y1="494.166" y2="507.1211"/><line style="stroke:#181818;stroke-width:1.0;" x1="451" x2="451" y1="494.166" y2="507.1211"/><path d="M424,546.6758 L424,567.2754 L536,567.2754 L536,556.6758 L526,546.6758 L424,546.6758 " fill="#FEFFDD" style="stroke:#181818;stroke-width:0.5;"/><path d="M526,546.6758 L526,556.6758 L536,556.6758 L526,546.6758 " fill="#FEFFDD" style="stroke:#181818;stroke-width:0.5;"/><text fill="#000000" font-family="sans-serif" font-size="9" lengthAdjust="spacing" textLength="91" x="430" y="560.377">Avaliações: Projetos</text><rect fill="#E2E2F0" height="12.9551" style="stroke:none;stroke-width:1.0;" width="68" x="426" y="531.7207"/><line style="stroke:#181818;stroke-width:1.0;" x1="426" x2="494" y1="531.7207" y2="531.7207"/><line style="stroke:#181818;stroke-width:1.0;" x1="426" x2="494" y1="544.6758" y2="544.6758"/><line style="stroke:#181818;stroke-width:1.0;" x1="426" x2="426" y1="531.7207" y2="544.6758"/><line style="stroke:#181818;stroke-width:1.0;" x1="494" x2="494" y1="531.7207" y2="544.6758"/><rect fill="#E2E2F0" height="12.9551" style="stroke:none;stroke-width:1.0;" width="1" x="494" y="569.2754"/><line style="stroke:#181818;stroke-width:1.0;" x1="494" x2="495" y1="569.2754" y2="569.2754"/><line style="stroke:#181818;stroke-width:1.0;" x1="494" x2="495" y1="582.2305" y2="582.2305"/><line style="stroke:#181818;stroke-width:1.0;" x1="494" x2="494" y1="569.2754" y2="582.2305"/><line style="stroke:#181818;stroke-width:1.0;" x1="495" x2="495" y1="569.2754" y2="582.2305"/><text fill="#000000" font-family="sans-serif" font-size="11" lengthAdjust="spacing" textLength="66" x="10" y="49.6348">cronograma</text><text fill="#000000" font-family="sans-serif" font-size="11" lengthAdjust="spacing" textLength="63" x="6" y="74.5898">completado</text><text fill="#000000" font-family="sans-serif" font-size="11" lengthAdjust="spacing" textLength="23" x="6" y="91.5449">falta</text><text fill="#000000" font-family="sans-serif" font-size="11" lengthAdjust="spacing" textLength="30" x="10" y="116.5">Aulas</text><text fill="#000000" font-family="sans-serif" font-size="11" lengthAdjust="spacing" textLength="35" x="6" y="141.4551">Termo</text><text fill="#000000" font-family="sans-serif" font-size="11" lengthAdjust="spacing" textLength="38" x="6" y="158.4102">Aula01</text><text fill="#000000" font-family="sans-serif" font-size="11" lengthAdjust="spacing" textLength="38" x="34" y="175.3652">Aula02</text><text fill="#000000" font-family="sans-serif" font-size="11" lengthAdjust="spacing" textLength="38" x="62" y="192.3203">Aula03</text><text fill="#000000" font-family="sans-serif" font-size="11" lengthAdjust="spacing" textLength="88" x="66" y="229.875">Pré-projeto (SIS)</text><text fill="#000000" font-family="sans-serif" font-size="11" lengthAdjust="spacing" textLength="38" x="90" y="246.8301">Aula04</text><text fill="#000000" font-family="sans-serif" font-size="11" lengthAdjust="spacing" textLength="38" x="118" y="263.7852">Aula05</text><text fill="#000000" font-family="sans-serif" font-size="11" lengthAdjust="spacing" textLength="38" x="146" y="280.7402">Aula06</text><text fill="#000000" font-family="sans-serif" font-size="11" lengthAdjust="spacing" textLength="38" x="174" y="297.6953">Aula07</text><text fill="#000000" font-family="sans-serif" font-size="11" lengthAdjust="spacing" textLength="38" x="202" y="314.6504">Aula08</text><text fill="#000000" font-family="sans-serif" font-size="11" lengthAdjust="spacing" textLength="38" x="230" y="331.6055">Aula09</text><text fill="#000000" font-family="sans-serif" font-size="11" lengthAdjust="spacing" textLength="38" x="258" y="348.5605">Aula10</text><text fill="#000000" font-family="sans-serif" font-size="11" lengthAdjust="spacing" textLength="38" x="262" y="386.1152">Projeto</text><text fill="#000000" font-family="sans-serif" font-size="11" lengthAdjust="spacing" textLength="38" x="286" y="403.0703">Aula11</text><text fill="#000000" font-family="sans-serif" font-size="11" lengthAdjust="spacing" textLength="38" x="314" y="420.0254">Aula12</text><text fill="#000000" font-family="sans-serif" font-size="11" lengthAdjust="spacing" textLength="38" x="342" y="436.9805">Aula13</text><text fill="#000000" font-family="sans-serif" font-size="11" lengthAdjust="spacing" textLength="38" x="370" y="453.9355">Aula14</text><text fill="#000000" font-family="sans-serif" font-size="11" lengthAdjust="spacing" textLength="38" x="398" y="470.8906">Aula15</text><text fill="#000000" font-family="sans-serif" font-size="11" lengthAdjust="spacing" textLength="38" x="426" y="487.8457">Aula16</text><text fill="#000000" font-family="sans-serif" font-size="11" lengthAdjust="spacing" textLength="38" x="454" y="504.8008">Aula17</text><text fill="#000000" font-family="sans-serif" font-size="11" lengthAdjust="spacing" textLength="25" x="430" y="542.3555">Final</text><text fill="#000000" font-family="sans-serif" font-size="11" lengthAdjust="spacing" textLength="38" x="498" y="579.9102">Aula18</text><line style="stroke:#C0C0C0;stroke-width:1.0;" x1="0" x2="496" y1="584.2305" y2="584.2305"/><line style="stroke:#C0C0C0;stroke-width:1.0;" x1="0" x2="0" y1="584.2305" y2="600.2305"/><line style="stroke:#C0C0C0;stroke-width:1.0;" x1="120" x2="120" y1="584.2305" y2="600.2305"/><text fill="#000000" font-family="Serif" font-size="12" font-weight="bold" lengthAdjust="spacing" textLength="49" x="35.5" y="593.2305">Aug 2022</text><line style="stroke:#C0C0C0;stroke-width:1.0;" x1="240" x2="240" y1="584.2305" y2="600.2305"/><text fill="#000000" font-family="Serif" font-size="12" font-weight="bold" lengthAdjust="spacing" textLength="46" x="157" y="593.2305">Sep 2022</text><line style="stroke:#C0C0C0;stroke-width:1.0;" x1="364" x2="364" y1="584.2305" y2="600.2305"/><text fill="#000000" font-family="Serif" font-size="12" font-weight="bold" lengthAdjust="spacing" textLength="45" x="279.5" y="593.2305">Oct 2022</text><line style="stroke:#C0C0C0;stroke-width:1.0;" x1="484" x2="484" y1="584.2305" y2="600.2305"/><text fill="#000000" font-family="Serif" font-size="12" font-weight="bold" lengthAdjust="spacing" textLength="48" x="400" y="593.2305">Nov 2022</text><line style="stroke:#C0C0C0;stroke-width:1.0;" x1="496" x2="496" y1="584.2305" y2="600.2305"/><text fill="#000000" font-family="Serif" font-size="12" font-weight="bold" lengthAdjust="spacing" textLength="19" x="484" y="593.2305">Dec</text><line style="stroke:#C0C0C0;stroke-width:1.0;" x1="0" x2="496" y1="600.2305" y2="600.2305"/><!--MD5=[4f235327371eced2d9fbf59fa9e37cd8]
@startgantt cronograma_SIS

/'TODO: tentar usar variáveis do sistema: <https://blog.jdriven.com/2017/01/plantuml-pleasantness-using-current-date/>  '/
/'atualizar'/
!$dataInicio = "2022-08-02"
!$dataFim  = "2022-12-03"
!$Aula01 = $dataInicio
!$Aula02 = "2022-08-09"
!$Aula03 = "2022-08-16"
!$Aula04 = "2022-08-23"
!$Aula05 = "2022-08-30"
!$Aula06 = "2022-09-06"
!$Aula07 = "2022-09-13"
!$Aula08 = "2022-09-20"
!$Aula09 = "2022-09-27"
!$Aula10 = "2022-10-04"
!$Aula11 = "2022-10-11"
!$Aula12 = "2022-10-18"
!$Aula13 = "2022-10-25"
!$Aula14 = "2022-11-01"
!$Aula15 = "2022-11-08"
!$Aula16 = "2022-11-15"
!$Aula17 = "2022-11-22"
!$Aula18 = "2022-11-29"
!$Aula18 = $dataFim

!$dataAtual  = $Aula01
/'atualizar'/

ganttscale weekly

Project starts $dataInicio

- - cronograma - - 
[completado] is colored in green
[completado] starts $dataInicio and ends $dataAtual
[falta] starts $dataAtual and ends $dataFim
[falta] is colored in blue

- - Aulas - - 
[Termo] is colored in Red
[Termo]  starts $Aula01 and ends $Aula03
[Aula01] starts $Aula01 and ends $Aula01
[Aula02] starts $Aula02 and ends $Aula02
[Aula03] starts $Aula03 and ends $Aula03
note bottom
Entrega: Termo de Compromisso
end note
[Pré-projeto (SIS)] starts at [Termo]'s end
[Pré-projeto (SIS)] ends $Aula10
[Aula04] starts $Aula04 and ends $Aula04
[Aula05] starts $Aula05 and ends $Aula05
[Aula06] starts $Aula06 and ends $Aula06
[Aula07] starts $Aula07 and ends $Aula07
[Aula08] starts $Aula08 and ends $Aula08
[Aula09] starts $Aula09 and ends $Aula09
[Aula10] starts $Aula10 and ends $Aula10
note bottom
Entrega: Pré-projeto (SIS) 
end note
[Projeto] starts at [Pré-projeto (SIS)]'s end with green dashed link
[Projeto] ends $Aula16
[Aula11] starts $Aula11 and ends $Aula11
[Aula12] starts $Aula12 and ends $Aula12
[Aula13] starts $Aula13 and ends $Aula13
[Aula14] starts $Aula14 and ends $Aula14
[Aula15] starts $Aula15 and ends $Aula15
[Aula16] starts $Aula16 and ends $Aula16
[Aula17] starts $Aula17 and ends $Aula17
note bottom
Entrega: Projeto 
end note
[Final] starts at [Projeto]'s end with blue dashed link
[Final] ends $Aula18
note bottom
Avaliações: Projetos
end note
[Aula18] starts $Aula18 and ends $Aula18

@endgantt

@startgantt cronograma_SIS



ganttscale weekly

Project starts 2022-08-02

- - cronograma - - 
[completado] is colored in green
[completado] starts 2022-08-02 and ends 2022-08-02
[falta] starts 2022-08-02 and ends 2022-12-03
[falta] is colored in blue

- - Aulas - - 
[Termo] is colored in Red
[Termo]  starts 2022-08-02 and ends 2022-08-16
[Aula01] starts 2022-08-02 and ends 2022-08-02
[Aula02] starts 2022-08-09 and ends 2022-08-09
[Aula03] starts 2022-08-16 and ends 2022-08-16
note bottom
Entrega: Termo de Compromisso
end note
[Pré-projeto (SIS)] starts at [Termo]'s end
[Pré-projeto (SIS)] ends 2022-10-04
[Aula04] starts 2022-08-23 and ends 2022-08-23
[Aula05] starts 2022-08-30 and ends 2022-08-30
[Aula06] starts 2022-09-06 and ends 2022-09-06
[Aula07] starts 2022-09-13 and ends 2022-09-13
[Aula08] starts 2022-09-20 and ends 2022-09-20
[Aula09] starts 2022-09-27 and ends 2022-09-27
[Aula10] starts 2022-10-04 and ends 2022-10-04
note bottom
Entrega: Pré-projeto (SIS) 
end note
[Projeto] starts at [Pré-projeto (SIS)]'s end with green dashed link
[Projeto] ends 2022-11-15
[Aula11] starts 2022-10-11 and ends 2022-10-11
[Aula12] starts 2022-10-18 and ends 2022-10-18
[Aula13] starts 2022-10-25 and ends 2022-10-25
[Aula14] starts 2022-11-01 and ends 2022-11-01
[Aula15] starts 2022-11-08 and ends 2022-11-08
[Aula16] starts 2022-11-15 and ends 2022-11-15
[Aula17] starts 2022-11-22 and ends 2022-11-22
note bottom
Entrega: Projeto 
end note
[Final] starts at [Projeto]'s end with blue dashed link
[Final] ends 2022-12-03
note bottom
Avaliações: Projetos
end note
[Aula18] starts 2022-12-03 and ends 2022-12-03

@endgantt

PlantUML version 1.2022.5(Sat Apr 30 07:55:52 BRT 2022)
(GPL source distribution)
Java Runtime: OpenJDK Runtime Environment
JVM: OpenJDK 64-Bit Server VM
Default Encoding: UTF-8
Language: en
Country: BR
--></g></svg>