<?xml version="1.0" encoding="UTF-8" standalone="no"?><svg xmlns="http://www.w3.org/2000/svg" xmlns:xlink="http://www.w3.org/1999/xlink" contentScriptType="application/ecmascript" contentStyleType="text/css" height="660px" preserveAspectRatio="none" style="width:538px;height:660px;background:#FFFFFF;" version="1.1" viewBox="0 0 538 660" width="538px" zoomAndPan="magnify"><defs/><g><text fill="#000000" font-family="Serif" font-size="10" lengthAdjust="spacing" textLength="5" x="25" y="23.5">9</text><text fill="#000000" font-family="Serif" font-size="10" lengthAdjust="spacing" textLength="10" x="53" y="23.5">10</text><text fill="#000000" font-family="Serif" font-size="10" lengthAdjust="spacing" textLength="10" x="81" y="23.5">11</text><text fill="#000000" font-family="Serif" font-size="10" lengthAdjust="spacing" textLength="10" x="109" y="23.5">12</text><text fill="#000000" font-family="Serif" font-size="10" lengthAdjust="spacing" textLength="10" x="137" y="23.5">13</text><text fill="#000000" font-family="Serif" font-size="10" lengthAdjust="spacing" textLength="10" x="165" y="23.5">14</text><text fill="#000000" font-family="Serif" font-size="10" lengthAdjust="spacing" textLength="10" x="193" y="23.5">15</text><text fill="#000000" font-family="Serif" font-size="10" lengthAdjust="spacing" textLength="10" x="221" y="23.5">16</text><text fill="#000000" font-family="Serif" font-size="10" lengthAdjust="spacing" textLength="10" x="249" y="23.5">17</text><text fill="#000000" font-family="Serif" font-size="10" lengthAdjust="spacing" textLength="10" x="277" y="23.5">18</text><text fill="#000000" font-family="Serif" font-size="10" lengthAdjust="spacing" textLength="10" x="305" y="23.5">19</text><text fill="#000000" font-family="Serif" font-size="10" lengthAdjust="spacing" textLength="10" x="333" y="23.5">20</text><text fill="#000000" font-family="Serif" font-size="10" lengthAdjust="spacing" textLength="10" x="361" y="23.5">21</text><text fill="#000000" font-family="Serif" font-size="10" lengthAdjust="spacing" textLength="10" x="389" y="23.5">22</text><text fill="#000000" font-family="Serif" font-size="10" lengthAdjust="spacing" textLength="10" x="417" y="23.5">23</text><text fill="#000000" font-family="Serif" font-size="10" lengthAdjust="spacing" textLength="10" x="445" y="23.5">24</text><text fill="#000000" font-family="Serif" font-size="10" lengthAdjust="spacing" textLength="10" x="473" y="23.5">25</text><line style="stroke:#C0C0C0;stroke-width:1.0;" x1="20" x2="20" y1="16" y2="642.3848"/><line style="stroke:#C0C0C0;stroke-width:1.0;" x1="48" x2="48" y1="16" y2="642.3848"/><line style="stroke:#C0C0C0;stroke-width:1.0;" x1="76" x2="76" y1="16" y2="642.3848"/><line style="stroke:#C0C0C0;stroke-width:1.0;" x1="104" x2="104" y1="16" y2="642.3848"/><line style="stroke:#C0C0C0;stroke-width:1.0;" x1="132" x2="132" y1="16" y2="642.3848"/><line style="stroke:#C0C0C0;stroke-width:1.0;" x1="160" x2="160" y1="16" y2="642.3848"/><line style="stroke:#C0C0C0;stroke-width:1.0;" x1="188" x2="188" y1="16" y2="642.3848"/><line style="stroke:#C0C0C0;stroke-width:1.0;" x1="216" x2="216" y1="16" y2="642.3848"/><line style="stroke:#C0C0C0;stroke-width:1.0;" x1="244" x2="244" y1="16" y2="642.3848"/><line style="stroke:#C0C0C0;stroke-width:1.0;" x1="272" x2="272" y1="16" y2="642.3848"/><line style="stroke:#C0C0C0;stroke-width:1.0;" x1="300" x2="300" y1="16" y2="642.3848"/><line style="stroke:#C0C0C0;stroke-width:1.0;" x1="328" x2="328" y1="16" y2="642.3848"/><line style="stroke:#C0C0C0;stroke-width:1.0;" x1="356" x2="356" y1="16" y2="642.3848"/><line style="stroke:#C0C0C0;stroke-width:1.0;" x1="384" x2="384" y1="16" y2="642.3848"/><line style="stroke:#C0C0C0;stroke-width:1.0;" x1="412" x2="412" y1="16" y2="642.3848"/><line style="stroke:#C0C0C0;stroke-width:1.0;" x1="440" x2="440" y1="16" y2="642.3848"/><line style="stroke:#C0C0C0;stroke-width:1.0;" x1="468" x2="468" y1="16" y2="642.3848"/><line style="stroke:#C0C0C0;stroke-width:1.0;" x1="480" x2="480" y1="16" y2="642.3848"/><line style="stroke:#C0C0C0;stroke-width:1.0;" x1="0" x2="0" y1="0" y2="16"/><line style="stroke:#C0C0C0;stroke-width:1.0;" x1="24" x2="24" y1="0" y2="16"/><text fill="#000000" font-family="Serif" font-size="12" font-weight="bold" lengthAdjust="spacing" textLength="19" x="2.5" y="9">Feb</text><line style="stroke:#C0C0C0;stroke-width:1.0;" x1="148" x2="148" y1="0" y2="16"/><text fill="#000000" font-family="Serif" font-size="12" font-weight="bold" lengthAdjust="spacing" textLength="49" x="61.5" y="9">Mar 2022</text><line style="stroke:#C0C0C0;stroke-width:1.0;" x1="268" x2="268" y1="0" y2="16"/><text fill="#000000" font-family="Serif" font-size="12" font-weight="bold" lengthAdjust="spacing" textLength="48" x="184" y="9">Apr 2022</text><line style="stroke:#C0C0C0;stroke-width:1.0;" x1="392" x2="392" y1="0" y2="16"/><text fill="#000000" font-family="Serif" font-size="12" font-weight="bold" lengthAdjust="spacing" textLength="50" x="305" y="9">May 2022</text><line style="stroke:#C0C0C0;stroke-width:1.0;" x1="480" x2="480" y1="0" y2="16"/><text fill="#000000" font-family="Serif" font-size="12" font-weight="bold" lengthAdjust="spacing" textLength="47" x="412.5" y="9">Jun 2022</text><line style="stroke:#C0C0C0;stroke-width:1.0;" x1="0" x2="480" y1="0" y2="0"/><line style="stroke:#C0C0C0;stroke-width:1.0;" x1="0" x2="480" y1="16" y2="16"/><line style="stroke:#C0C0C0;stroke-width:1.0;" x1="0" x2="480" y1="29" y2="29"/><line style="stroke:#A80036;stroke-width:1.5;" x1="51" x2="51" y1="143.7754" y2="225.7178"/><line style="stroke:#A80036;stroke-width:1.5;" x1="51" x2="59" y1="225.7178" y2="225.7178"/><polygon fill="#A80036" points="55,221.7178,55,225.7178,55,229.7178,59,225.7178" style="stroke:#A80036;stroke-width:1.5;"/><line style="stroke:#A80036;stroke-width:1.5;" x1="51" x2="51" y1="143.7754" y2="242.6729"/><line style="stroke:#A80036;stroke-width:1.5;" x1="51" x2="59" y1="242.6729" y2="242.6729"/><polygon fill="#A80036" points="55,238.6729,55,242.6729,55,246.6729,59,242.6729" style="stroke:#A80036;stroke-width:1.5;"/><line style="stroke:#008000;stroke-width:1.5;stroke-dasharray:7.0,7.0;" x1="219" x2="219" y1="232.1953" y2="419.5127"/><line style="stroke:#008000;stroke-width:1.5;stroke-dasharray:7.0,7.0;" x1="219" x2="227" y1="419.5127" y2="419.5127"/><polygon fill="#008000" points="223,415.5127,223,419.5127,223,423.5127,227,419.5127" style="stroke:#008000;stroke-width:1.5;"/><line style="stroke:#0000FF;stroke-width:1.5;stroke-dasharray:7.0,7.0;" x1="415" x2="415" y1="425.9902" y2="579.3975"/><line style="stroke:#0000FF;stroke-width:1.5;stroke-dasharray:7.0,7.0;" x1="415" x2="423" y1="579.3975" y2="579.3975"/><polygon fill="#0000FF" points="419,575.3975,419,579.3975,419,583.3975,423,579.3975" style="stroke:#0000FF;stroke-width:1.5;"/><line style="stroke:#000000;stroke-width:1.0;" x1="0" x2="5" y1="45.4775" y2="45.4775"/><line style="stroke:#000000;stroke-width:1.0;" x1="81" x2="479" y1="45.4775" y2="45.4775"/><rect fill="#008000" height="12.9551" style="stroke:none;stroke-width:1.0;" width="136" x="2" y="63.9551"/><line style="stroke:#008000;stroke-width:1.0;" x1="2" x2="138" y1="63.9551" y2="63.9551"/><line style="stroke:#008000;stroke-width:1.0;" x1="2" x2="138" y1="76.9102" y2="76.9102"/><line style="stroke:#008000;stroke-width:1.0;" x1="2" x2="2" y1="63.9551" y2="76.9102"/><line style="stroke:#008000;stroke-width:1.0;" x1="138" x2="138" y1="63.9551" y2="76.9102"/><rect fill="#0000FF" height="12.9551" style="stroke:none;stroke-width:1.0;" width="340" x="138" y="80.9102"/><line style="stroke:#0000FF;stroke-width:1.0;" x1="138" x2="478" y1="80.9102" y2="80.9102"/><line style="stroke:#0000FF;stroke-width:1.0;" x1="138" x2="478" y1="93.8652" y2="93.8652"/><line style="stroke:#0000FF;stroke-width:1.0;" x1="138" x2="138" y1="80.9102" y2="93.8652"/><line style="stroke:#0000FF;stroke-width:1.0;" x1="478" x2="478" y1="80.9102" y2="93.8652"/><line style="stroke:#000000;stroke-width:1.0;" x1="0" x2="5" y1="112.3428" y2="112.3428"/><line style="stroke:#000000;stroke-width:1.0;" x1="45" x2="479" y1="112.3428" y2="112.3428"/><rect fill="#FF0000" height="12.9551" style="stroke:none;stroke-width:1.0;" width="56" x="2" y="130.8203"/><line style="stroke:#FF0000;stroke-width:1.0;" x1="2" x2="58" y1="130.8203" y2="130.8203"/><line style="stroke:#FF0000;stroke-width:1.0;" x1="2" x2="58" y1="143.7754" y2="143.7754"/><line style="stroke:#FF0000;stroke-width:1.0;" x1="2" x2="2" y1="130.8203" y2="143.7754"/><line style="stroke:#FF0000;stroke-width:1.0;" x1="58" x2="58" y1="130.8203" y2="143.7754"/><rect fill="#FEFECE" height="12.9551" style="stroke:none;stroke-width:1.0;" width="1" x="2" y="147.7754"/><line style="stroke:#A80036;stroke-width:1.0;" x1="2" x2="3" y1="147.7754" y2="147.7754"/><line style="stroke:#A80036;stroke-width:1.0;" x1="2" x2="3" y1="160.7305" y2="160.7305"/><line style="stroke:#A80036;stroke-width:1.0;" x1="2" x2="2" y1="147.7754" y2="160.7305"/><line style="stroke:#A80036;stroke-width:1.0;" x1="3" x2="3" y1="147.7754" y2="160.7305"/><rect fill="#FEFECE" height="12.9551" style="stroke:none;stroke-width:1.0;" width="1" x="30" y="164.7305"/><line style="stroke:#A80036;stroke-width:1.0;" x1="30" x2="31" y1="164.7305" y2="164.7305"/><line style="stroke:#A80036;stroke-width:1.0;" x1="30" x2="31" y1="177.6855" y2="177.6855"/><line style="stroke:#A80036;stroke-width:1.0;" x1="30" x2="30" y1="164.7305" y2="177.6855"/><line style="stroke:#A80036;stroke-width:1.0;" x1="31" x2="31" y1="164.7305" y2="177.6855"/><path d="M56,196.6406 L56,217.2402 L226,217.2402 L226,206.6406 L216,196.6406 L56,196.6406 " fill="#FBFB77" style="stroke:#A80036;stroke-width:1.0;"/><path d="M216,196.6406 L216,206.6406 L226,206.6406 L216,196.6406 " fill="#FBFB77" style="stroke:#A80036;stroke-width:1.0;"/><text fill="#000000" font-family="sans-serif" font-size="9" lengthAdjust="spacing" textLength="149" x="62" y="210.3418">Entrega: Termo de Compromisso</text><rect fill="#FEFECE" height="12.9551" style="stroke:none;stroke-width:1.0;" width="1" x="58" y="181.6855"/><line style="stroke:#A80036;stroke-width:1.0;" x1="58" x2="59" y1="181.6855" y2="181.6855"/><line style="stroke:#A80036;stroke-width:1.0;" x1="58" x2="59" y1="194.6406" y2="194.6406"/><line style="stroke:#A80036;stroke-width:1.0;" x1="58" x2="58" y1="181.6855" y2="194.6406"/><line style="stroke:#A80036;stroke-width:1.0;" x1="59" x2="59" y1="181.6855" y2="194.6406"/><rect fill="#FEFECE" height="12.9551" style="stroke:none;stroke-width:1.0;" width="164" x="62" y="219.2402"/><line style="stroke:#A80036;stroke-width:1.0;" x1="62" x2="226" y1="219.2402" y2="219.2402"/><line style="stroke:#A80036;stroke-width:1.0;" x1="62" x2="226" y1="232.1953" y2="232.1953"/><line style="stroke:#A80036;stroke-width:1.0;" x1="62" x2="62" y1="219.2402" y2="232.1953"/><line style="stroke:#A80036;stroke-width:1.0;" x1="226" x2="226" y1="219.2402" y2="232.1953"/><rect fill="#FEFECE" height="12.9551" style="stroke:none;stroke-width:1.0;" width="192" x="62" y="236.1953"/><line style="stroke:#A80036;stroke-width:1.0;" x1="62" x2="254" y1="236.1953" y2="236.1953"/><line style="stroke:#A80036;stroke-width:1.0;" x1="62" x2="254" y1="249.1504" y2="249.1504"/><line style="stroke:#A80036;stroke-width:1.0;" x1="62" x2="62" y1="236.1953" y2="249.1504"/><line style="stroke:#A80036;stroke-width:1.0;" x1="254" x2="254" y1="236.1953" y2="249.1504"/><rect fill="#FEFECE" height="12.9551" style="stroke:none;stroke-width:1.0;" width="1" x="86" y="253.1504"/><line style="stroke:#A80036;stroke-width:1.0;" x1="86" x2="87" y1="253.1504" y2="253.1504"/><line style="stroke:#A80036;stroke-width:1.0;" x1="86" x2="87" y1="266.1055" y2="266.1055"/><line style="stroke:#A80036;stroke-width:1.0;" x1="86" x2="86" y1="253.1504" y2="266.1055"/><line style="stroke:#A80036;stroke-width:1.0;" x1="87" x2="87" y1="253.1504" y2="266.1055"/><rect fill="#FEFECE" height="12.9551" style="stroke:none;stroke-width:1.0;" width="1" x="114" y="270.1055"/><line style="stroke:#A80036;stroke-width:1.0;" x1="114" x2="115" y1="270.1055" y2="270.1055"/><line style="stroke:#A80036;stroke-width:1.0;" x1="114" x2="115" y1="283.0605" y2="283.0605"/><line style="stroke:#A80036;stroke-width:1.0;" x1="114" x2="114" y1="270.1055" y2="283.0605"/><line style="stroke:#A80036;stroke-width:1.0;" x1="115" x2="115" y1="270.1055" y2="283.0605"/><rect fill="#FEFECE" height="12.9551" style="stroke:none;stroke-width:1.0;" width="1" x="142" y="287.0605"/><line style="stroke:#A80036;stroke-width:1.0;" x1="142" x2="143" y1="287.0605" y2="287.0605"/><line style="stroke:#A80036;stroke-width:1.0;" x1="142" x2="143" y1="300.0156" y2="300.0156"/><line style="stroke:#A80036;stroke-width:1.0;" x1="142" x2="142" y1="287.0605" y2="300.0156"/><line style="stroke:#A80036;stroke-width:1.0;" x1="143" x2="143" y1="287.0605" y2="300.0156"/><rect fill="#FEFECE" height="12.9551" style="stroke:none;stroke-width:1.0;" width="1" x="170" y="304.0156"/><line style="stroke:#A80036;stroke-width:1.0;" x1="170" x2="171" y1="304.0156" y2="304.0156"/><line style="stroke:#A80036;stroke-width:1.0;" x1="170" x2="171" y1="316.9707" y2="316.9707"/><line style="stroke:#A80036;stroke-width:1.0;" x1="170" x2="170" y1="304.0156" y2="316.9707"/><line style="stroke:#A80036;stroke-width:1.0;" x1="171" x2="171" y1="304.0156" y2="316.9707"/><rect fill="#FEFECE" height="12.9551" style="stroke:none;stroke-width:1.0;" width="1" x="198" y="320.9707"/><line style="stroke:#A80036;stroke-width:1.0;" x1="198" x2="199" y1="320.9707" y2="320.9707"/><line style="stroke:#A80036;stroke-width:1.0;" x1="198" x2="199" y1="333.9258" y2="333.9258"/><line style="stroke:#A80036;stroke-width:1.0;" x1="198" x2="198" y1="320.9707" y2="333.9258"/><line style="stroke:#A80036;stroke-width:1.0;" x1="199" x2="199" y1="320.9707" y2="333.9258"/><path d="M224,352.8809 L224,373.4805 L366,373.4805 L366,362.8809 L356,352.8809 L224,352.8809 " fill="#FBFB77" style="stroke:#A80036;stroke-width:1.0;"/><path d="M356,352.8809 L356,362.8809 L366,362.8809 L356,352.8809 " fill="#FBFB77" style="stroke:#A80036;stroke-width:1.0;"/><text fill="#000000" font-family="sans-serif" font-size="9" lengthAdjust="spacing" textLength="118" x="230" y="366.582">Entrega: Pré-projeto (BCC)</text><rect fill="#FEFECE" height="12.9551" style="stroke:none;stroke-width:1.0;" width="1" x="226" y="337.9258"/><line style="stroke:#A80036;stroke-width:1.0;" x1="226" x2="227" y1="337.9258" y2="337.9258"/><line style="stroke:#A80036;stroke-width:1.0;" x1="226" x2="227" y1="350.8809" y2="350.8809"/><line style="stroke:#A80036;stroke-width:1.0;" x1="226" x2="226" y1="337.9258" y2="350.8809"/><line style="stroke:#A80036;stroke-width:1.0;" x1="227" x2="227" y1="337.9258" y2="350.8809"/><path d="M252,390.4355 L252,411.0352 L390,411.0352 L390,400.4355 L380,390.4355 L252,390.4355 " fill="#FBFB77" style="stroke:#A80036;stroke-width:1.0;"/><path d="M380,390.4355 L380,400.4355 L390,400.4355 L380,390.4355 " fill="#FBFB77" style="stroke:#A80036;stroke-width:1.0;"/><text fill="#000000" font-family="sans-serif" font-size="9" lengthAdjust="spacing" textLength="114" x="258" y="404.1367">Entrega: Pré-projeto (SIS)</text><rect fill="#FEFECE" height="12.9551" style="stroke:none;stroke-width:1.0;" width="1" x="254" y="375.4805"/><line style="stroke:#A80036;stroke-width:1.0;" x1="254" x2="255" y1="375.4805" y2="375.4805"/><line style="stroke:#A80036;stroke-width:1.0;" x1="254" x2="255" y1="388.4355" y2="388.4355"/><line style="stroke:#A80036;stroke-width:1.0;" x1="254" x2="254" y1="375.4805" y2="388.4355"/><line style="stroke:#A80036;stroke-width:1.0;" x1="255" x2="255" y1="375.4805" y2="388.4355"/><rect fill="#FEFECE" height="12.9551" style="stroke:none;stroke-width:1.0;" width="192" x="230" y="413.0352"/><line style="stroke:#A80036;stroke-width:1.0;" x1="230" x2="422" y1="413.0352" y2="413.0352"/><line style="stroke:#A80036;stroke-width:1.0;" x1="230" x2="422" y1="425.9902" y2="425.9902"/><line style="stroke:#A80036;stroke-width:1.0;" x1="230" x2="230" y1="413.0352" y2="425.9902"/><line style="stroke:#A80036;stroke-width:1.0;" x1="422" x2="422" y1="413.0352" y2="425.9902"/><path d="M280,444.9453 L280,465.5449 L361,465.5449 L361,454.9453 L351,444.9453 L280,444.9453 " fill="#FBFB77" style="stroke:#A80036;stroke-width:1.0;"/><path d="M351,444.9453 L351,454.9453 L361,454.9453 L351,444.9453 " fill="#FBFB77" style="stroke:#A80036;stroke-width:1.0;"/><text fill="#000000" font-family="sans-serif" font-size="9" lengthAdjust="spacing" textLength="57" x="286" y="458.6465">Bancas (BCC)</text><rect fill="#FEFECE" height="12.9551" style="stroke:none;stroke-width:1.0;" width="1" x="282" y="429.9902"/><line style="stroke:#A80036;stroke-width:1.0;" x1="282" x2="283" y1="429.9902" y2="429.9902"/><line style="stroke:#A80036;stroke-width:1.0;" x1="282" x2="283" y1="442.9453" y2="442.9453"/><line style="stroke:#A80036;stroke-width:1.0;" x1="282" x2="282" y1="429.9902" y2="442.9453"/><line style="stroke:#A80036;stroke-width:1.0;" x1="283" x2="283" y1="429.9902" y2="442.9453"/><rect fill="#FEFECE" height="12.9551" style="stroke:none;stroke-width:1.0;" width="1" x="310" y="467.5449"/><line style="stroke:#A80036;stroke-width:1.0;" x1="310" x2="311" y1="467.5449" y2="467.5449"/><line style="stroke:#A80036;stroke-width:1.0;" x1="310" x2="311" y1="480.5" y2="480.5"/><line style="stroke:#A80036;stroke-width:1.0;" x1="310" x2="310" y1="467.5449" y2="480.5"/><line style="stroke:#A80036;stroke-width:1.0;" x1="311" x2="311" y1="467.5449" y2="480.5"/><rect fill="#FEFECE" height="12.9551" style="stroke:none;stroke-width:1.0;" width="1" x="338" y="484.5"/><line style="stroke:#A80036;stroke-width:1.0;" x1="338" x2="339" y1="484.5" y2="484.5"/><line style="stroke:#A80036;stroke-width:1.0;" x1="338" x2="339" y1="497.4551" y2="497.4551"/><line style="stroke:#A80036;stroke-width:1.0;" x1="338" x2="338" y1="484.5" y2="497.4551"/><line style="stroke:#A80036;stroke-width:1.0;" x1="339" x2="339" y1="484.5" y2="497.4551"/><rect fill="#FEFECE" height="12.9551" style="stroke:none;stroke-width:1.0;" width="1" x="366" y="501.4551"/><line style="stroke:#A80036;stroke-width:1.0;" x1="366" x2="367" y1="501.4551" y2="501.4551"/><line style="stroke:#A80036;stroke-width:1.0;" x1="366" x2="367" y1="514.4102" y2="514.4102"/><line style="stroke:#A80036;stroke-width:1.0;" x1="366" x2="366" y1="501.4551" y2="514.4102"/><line style="stroke:#A80036;stroke-width:1.0;" x1="367" x2="367" y1="501.4551" y2="514.4102"/><rect fill="#FEFECE" height="12.9551" style="stroke:none;stroke-width:1.0;" width="1" x="394" y="518.4102"/><line style="stroke:#A80036;stroke-width:1.0;" x1="394" x2="395" y1="518.4102" y2="518.4102"/><line style="stroke:#A80036;stroke-width:1.0;" x1="394" x2="395" y1="531.3652" y2="531.3652"/><line style="stroke:#A80036;stroke-width:1.0;" x1="394" x2="394" y1="518.4102" y2="531.3652"/><line style="stroke:#A80036;stroke-width:1.0;" x1="395" x2="395" y1="518.4102" y2="531.3652"/><path d="M420,550.3203 L420,570.9199 L516,570.9199 L516,560.3203 L506,550.3203 L420,550.3203 " fill="#FBFB77" style="stroke:#A80036;stroke-width:1.0;"/><path d="M506,550.3203 L506,560.3203 L516,560.3203 L506,550.3203 " fill="#FBFB77" style="stroke:#A80036;stroke-width:1.0;"/><text fill="#000000" font-family="sans-serif" font-size="9" lengthAdjust="spacing" textLength="72" x="426" y="564.0215">Entrega: Projeto</text><rect fill="#FEFECE" height="12.9551" style="stroke:none;stroke-width:1.0;" width="1" x="422" y="535.3652"/><line style="stroke:#A80036;stroke-width:1.0;" x1="422" x2="423" y1="535.3652" y2="535.3652"/><line style="stroke:#A80036;stroke-width:1.0;" x1="422" x2="423" y1="548.3203" y2="548.3203"/><line style="stroke:#A80036;stroke-width:1.0;" x1="422" x2="422" y1="535.3652" y2="548.3203"/><line style="stroke:#A80036;stroke-width:1.0;" x1="423" x2="423" y1="535.3652" y2="548.3203"/><path d="M424,587.875 L424,608.4746 L536,608.4746 L536,597.875 L526,587.875 L424,587.875 " fill="#FBFB77" style="stroke:#A80036;stroke-width:1.0;"/><path d="M526,587.875 L526,597.875 L536,597.875 L526,587.875 " fill="#FBFB77" style="stroke:#A80036;stroke-width:1.0;"/><text fill="#000000" font-family="sans-serif" font-size="9" lengthAdjust="spacing" textLength="91" x="430" y="601.5762">Avaliações: Projetos</text><rect fill="#FEFECE" height="12.9551" style="stroke:none;stroke-width:1.0;" width="1" x="426" y="572.9199"/><line style="stroke:#A80036;stroke-width:1.0;" x1="426" x2="427" y1="572.9199" y2="572.9199"/><line style="stroke:#A80036;stroke-width:1.0;" x1="426" x2="427" y1="585.875" y2="585.875"/><line style="stroke:#A80036;stroke-width:1.0;" x1="426" x2="426" y1="572.9199" y2="585.875"/><line style="stroke:#A80036;stroke-width:1.0;" x1="427" x2="427" y1="572.9199" y2="585.875"/><rect fill="#FEFECE" height="12.9551" style="stroke:none;stroke-width:1.0;" width="1" x="450" y="610.4746"/><line style="stroke:#A80036;stroke-width:1.0;" x1="450" x2="451" y1="610.4746" y2="610.4746"/><line style="stroke:#A80036;stroke-width:1.0;" x1="450" x2="451" y1="623.4297" y2="623.4297"/><line style="stroke:#A80036;stroke-width:1.0;" x1="450" x2="450" y1="610.4746" y2="623.4297"/><line style="stroke:#A80036;stroke-width:1.0;" x1="451" x2="451" y1="610.4746" y2="623.4297"/><rect fill="#FEFECE" height="12.9551" style="stroke:none;stroke-width:1.0;" width="1" x="478" y="627.4297"/><line style="stroke:#A80036;stroke-width:1.0;" x1="478" x2="479" y1="627.4297" y2="627.4297"/><line style="stroke:#A80036;stroke-width:1.0;" x1="478" x2="479" y1="640.3848" y2="640.3848"/><line style="stroke:#A80036;stroke-width:1.0;" x1="478" x2="478" y1="627.4297" y2="640.3848"/><line style="stroke:#A80036;stroke-width:1.0;" x1="479" x2="479" y1="627.4297" y2="640.3848"/><text fill="#000000" font-family="sans-serif" font-size="11" lengthAdjust="spacing" textLength="66" x="10" y="49.6348">cronograma</text><text fill="#000000" font-family="sans-serif" font-size="11" lengthAdjust="spacing" textLength="63" x="6" y="74.5898">completado</text><text fill="#000000" font-family="sans-serif" font-size="11" lengthAdjust="spacing" textLength="23" x="142" y="91.5449">falta</text><text fill="#000000" font-family="sans-serif" font-size="11" lengthAdjust="spacing" textLength="30" x="10" y="116.5">Aulas</text><text fill="#000000" font-family="sans-serif" font-size="11" lengthAdjust="spacing" textLength="35" x="6" y="141.4551">Termo</text><text fill="#000000" font-family="sans-serif" font-size="11" lengthAdjust="spacing" textLength="38" x="6" y="158.4102">Aula01</text><text fill="#000000" font-family="sans-serif" font-size="11" lengthAdjust="spacing" textLength="38" x="34" y="175.3652">Aula02</text><text fill="#000000" font-family="sans-serif" font-size="11" lengthAdjust="spacing" textLength="38" x="62" y="192.3203">Aula03</text><text fill="#000000" font-family="sans-serif" font-size="11" lengthAdjust="spacing" textLength="95" x="66" y="229.875">Pré-projeto (BCC)</text><text fill="#000000" font-family="sans-serif" font-size="11" lengthAdjust="spacing" textLength="88" x="66" y="246.8301">Pré-projeto (SIS)</text><text fill="#000000" font-family="sans-serif" font-size="11" lengthAdjust="spacing" textLength="38" x="90" y="263.7852">Aula04</text><text fill="#000000" font-family="sans-serif" font-size="11" lengthAdjust="spacing" textLength="38" x="118" y="280.7402">Aula05</text><text fill="#000000" font-family="sans-serif" font-size="11" lengthAdjust="spacing" textLength="38" x="146" y="297.6953">Aula06</text><text fill="#000000" font-family="sans-serif" font-size="11" lengthAdjust="spacing" textLength="38" x="174" y="314.6504">Aula07</text><text fill="#000000" font-family="sans-serif" font-size="11" lengthAdjust="spacing" textLength="38" x="202" y="331.6055">Aula08</text><text fill="#000000" font-family="sans-serif" font-size="11" lengthAdjust="spacing" textLength="38" x="230" y="348.5605">Aula09</text><text fill="#000000" font-family="sans-serif" font-size="11" lengthAdjust="spacing" textLength="38" x="258" y="386.1152">Aula10</text><text fill="#000000" font-family="sans-serif" font-size="11" lengthAdjust="spacing" textLength="38" x="234" y="423.6699">Projeto</text><text fill="#000000" font-family="sans-serif" font-size="11" lengthAdjust="spacing" textLength="38" x="286" y="440.625">Aula11</text><text fill="#000000" font-family="sans-serif" font-size="11" lengthAdjust="spacing" textLength="38" x="314" y="478.1797">Aula12</text><text fill="#000000" font-family="sans-serif" font-size="11" lengthAdjust="spacing" textLength="38" x="342" y="495.1348">Aula13</text><text fill="#000000" font-family="sans-serif" font-size="11" lengthAdjust="spacing" textLength="38" x="370" y="512.0898">Aula14</text><text fill="#000000" font-family="sans-serif" font-size="11" lengthAdjust="spacing" textLength="38" x="398" y="529.0449">Aula15</text><text fill="#000000" font-family="sans-serif" font-size="11" lengthAdjust="spacing" textLength="38" x="426" y="546">Aula16</text><text fill="#000000" font-family="sans-serif" font-size="11" lengthAdjust="spacing" textLength="25" x="426" y="583.5547">Final</text><text fill="#000000" font-family="sans-serif" font-size="11" lengthAdjust="spacing" textLength="38" x="454" y="621.1094">Aula17</text><text fill="#000000" font-family="sans-serif" font-size="11" lengthAdjust="spacing" textLength="38" x="482" y="638.0645">Aula18</text><line style="stroke:#C0C0C0;stroke-width:1.0;" x1="0" x2="480" y1="642.3848" y2="642.3848"/><line style="stroke:#C0C0C0;stroke-width:1.0;" x1="0" x2="0" y1="642.3848" y2="658.3848"/><line style="stroke:#C0C0C0;stroke-width:1.0;" x1="24" x2="24" y1="642.3848" y2="658.3848"/><text fill="#000000" font-family="Serif" font-size="12" font-weight="bold" lengthAdjust="spacing" textLength="19" x="2.5" y="651.3848">Feb</text><line style="stroke:#C0C0C0;stroke-width:1.0;" x1="148" x2="148" y1="642.3848" y2="658.3848"/><text fill="#000000" font-family="Serif" font-size="12" font-weight="bold" lengthAdjust="spacing" textLength="49" x="61.5" y="651.3848">Mar 2022</text><line style="stroke:#C0C0C0;stroke-width:1.0;" x1="268" x2="268" y1="642.3848" y2="658.3848"/><text fill="#000000" font-family="Serif" font-size="12" font-weight="bold" lengthAdjust="spacing" textLength="48" x="184" y="651.3848">Apr 2022</text><line style="stroke:#C0C0C0;stroke-width:1.0;" x1="392" x2="392" y1="642.3848" y2="658.3848"/><text fill="#000000" font-family="Serif" font-size="12" font-weight="bold" lengthAdjust="spacing" textLength="50" x="305" y="651.3848">May 2022</text><line style="stroke:#C0C0C0;stroke-width:1.0;" x1="480" x2="480" y1="642.3848" y2="658.3848"/><text fill="#000000" font-family="Serif" font-size="12" font-weight="bold" lengthAdjust="spacing" textLength="47" x="412.5" y="651.3848">Jun 2022</text><line style="stroke:#C0C0C0;stroke-width:1.0;" x1="0" x2="480" y1="658.3848" y2="658.3848"/><!--MD5=[6140a54c2f4cc43f212619bc9c15eee3]
@startgantt

ganttscale weekly

Project starts 2022-02-23

- - cronograma - - 
[completado] is colored in green
[completado] starts 2022-02-23 and ends 2022-03-29
[falta] starts 2022-03-29 and ends 2022-06-22
[falta] is colored in blue

- - Aulas - - 
[Termo] is colored in Red
[Termo]  starts 2022-02-23 and ends 2022-03-09
[Aula01] starts 2022-02-23 and ends 2022-02-23
[Aula02] starts 2022-03-02 and ends 2022-03-02
[Aula03] starts 2022-03-09 and ends 2022-03-09
note bottom
Entrega: Termo de Compromisso
end note
[Pré-projeto (BCC)] starts at [Termo]'s end
[Pré-projeto (BCC)] ends 2022-04-20
[Pré-projeto (SIS)] starts at [Termo]'s end
[Pré-projeto (SIS)] ends 2022-04-27
[Aula04] starts 2022-03-16 and ends 2022-03-16
[Aula05] starts 2022-03-23 and ends 2022-03-23
[Aula06] starts 2022-03-30 and ends 2022-03-30
[Aula07] starts 2022-04-06 and ends 2022-04-06
[Aula08] starts 2022-04-13 and ends 2022-04-13
[Aula09] starts 2022-04-20 and ends 2022-04-20
note bottom
Entrega: Pré-projeto (BCC) 
end note
[Aula10] starts 2022-04-27 and ends 2022-04-27
note bottom
Entrega: Pré-projeto (SIS) 
end note
[Projeto] starts at [Pré-projeto (BCC)]'s end with green dashed link
[Projeto] ends 2022-06-08
[Aula11] starts 2022-05-04 and ends 2022-05-04
note bottom
Bancas (BCC) 
end note
[Aula12] starts 2022-05-11 and ends 2022-05-11
[Aula13] starts 2022-05-18 and ends 2022-05-18
[Aula14] starts 2022-05-25 and ends 2022-05-25
[Aula15] starts 2022-06-01 and ends 2022-06-01
[Aula16] starts 2022-06-08 and ends 2022-06-08
note bottom
Entrega: Projeto 
end note
[Final] starts at [Projeto]'s end with blue dashed link
[Final] ends 2022-06-08
note bottom
Avaliações: Projetos
end note
[Aula17] starts 2022-06-15 and ends 2022-06-15
[Aula18] starts 2022-06-22 and ends 2022-06-22

@endgantt

PlantUML version 1.2022.0(Tue Jan 11 13:16:42 BRT 2022)
(GPL source distribution)
Java Runtime: OpenJDK Runtime Environment
JVM: OpenJDK 64-Bit Server VM
Default Encoding: UTF-8
Language: en
Country: BR
--></g></svg>