<?xml version="1.0" encoding="UTF-8" standalone="no"?><svg xmlns="http://www.w3.org/2000/svg" xmlns:xlink="http://www.w3.org/1999/xlink" contentScriptType="application/ecmascript" contentStyleType="text/css" height="728px" preserveAspectRatio="none" style="width:582px;height:728px;background:#FFFFFF;" version="1.1" viewBox="0 0 582 728" width="582px" zoomAndPan="magnify"><defs/><g><text fill="#000000" font-family="Serif" font-size="10" lengthAdjust="spacing" textLength="10" x="9" y="23.5">31</text><text fill="#000000" font-family="Serif" font-size="10" lengthAdjust="spacing" textLength="10" x="37" y="23.5">32</text><text fill="#000000" font-family="Serif" font-size="10" lengthAdjust="spacing" textLength="10" x="65" y="23.5">33</text><text fill="#000000" font-family="Serif" font-size="10" lengthAdjust="spacing" textLength="10" x="93" y="23.5">34</text><text fill="#000000" font-family="Serif" font-size="10" lengthAdjust="spacing" textLength="10" x="121" y="23.5">35</text><text fill="#000000" font-family="Serif" font-size="10" lengthAdjust="spacing" textLength="10" x="149" y="23.5">36</text><text fill="#000000" font-family="Serif" font-size="10" lengthAdjust="spacing" textLength="10" x="177" y="23.5">37</text><text fill="#000000" font-family="Serif" font-size="10" lengthAdjust="spacing" textLength="10" x="205" y="23.5">38</text><text fill="#000000" font-family="Serif" font-size="10" lengthAdjust="spacing" textLength="10" x="233" y="23.5">39</text><text fill="#000000" font-family="Serif" font-size="10" lengthAdjust="spacing" textLength="10" x="261" y="23.5">40</text><text fill="#000000" font-family="Serif" font-size="10" lengthAdjust="spacing" textLength="10" x="289" y="23.5">41</text><text fill="#000000" font-family="Serif" font-size="10" lengthAdjust="spacing" textLength="10" x="317" y="23.5">42</text><text fill="#000000" font-family="Serif" font-size="10" lengthAdjust="spacing" textLength="10" x="345" y="23.5">43</text><text fill="#000000" font-family="Serif" font-size="10" lengthAdjust="spacing" textLength="10" x="373" y="23.5">44</text><text fill="#000000" font-family="Serif" font-size="10" lengthAdjust="spacing" textLength="10" x="401" y="23.5">45</text><text fill="#000000" font-family="Serif" font-size="10" lengthAdjust="spacing" textLength="10" x="429" y="23.5">46</text><text fill="#000000" font-family="Serif" font-size="10" lengthAdjust="spacing" textLength="10" x="457" y="23.5">47</text><text fill="#000000" font-family="Serif" font-size="10" lengthAdjust="spacing" textLength="10" x="485" y="23.5">48</text><text fill="#000000" font-family="Serif" font-size="10" lengthAdjust="spacing" textLength="10" x="513" y="23.5">49</text><line style="stroke:#C0C0C0;stroke-width:1.0;" x1="4" x2="4" y1="16" y2="710.6055"/><line style="stroke:#C0C0C0;stroke-width:1.0;" x1="32" x2="32" y1="16" y2="710.6055"/><line style="stroke:#C0C0C0;stroke-width:1.0;" x1="60" x2="60" y1="16" y2="710.6055"/><line style="stroke:#C0C0C0;stroke-width:1.0;" x1="88" x2="88" y1="16" y2="710.6055"/><line style="stroke:#C0C0C0;stroke-width:1.0;" x1="116" x2="116" y1="16" y2="710.6055"/><line style="stroke:#C0C0C0;stroke-width:1.0;" x1="144" x2="144" y1="16" y2="710.6055"/><line style="stroke:#C0C0C0;stroke-width:1.0;" x1="172" x2="172" y1="16" y2="710.6055"/><line style="stroke:#C0C0C0;stroke-width:1.0;" x1="200" x2="200" y1="16" y2="710.6055"/><line style="stroke:#C0C0C0;stroke-width:1.0;" x1="228" x2="228" y1="16" y2="710.6055"/><line style="stroke:#C0C0C0;stroke-width:1.0;" x1="256" x2="256" y1="16" y2="710.6055"/><line style="stroke:#C0C0C0;stroke-width:1.0;" x1="284" x2="284" y1="16" y2="710.6055"/><line style="stroke:#C0C0C0;stroke-width:1.0;" x1="312" x2="312" y1="16" y2="710.6055"/><line style="stroke:#C0C0C0;stroke-width:1.0;" x1="340" x2="340" y1="16" y2="710.6055"/><line style="stroke:#C0C0C0;stroke-width:1.0;" x1="368" x2="368" y1="16" y2="710.6055"/><line style="stroke:#C0C0C0;stroke-width:1.0;" x1="396" x2="396" y1="16" y2="710.6055"/><line style="stroke:#C0C0C0;stroke-width:1.0;" x1="424" x2="424" y1="16" y2="710.6055"/><line style="stroke:#C0C0C0;stroke-width:1.0;" x1="452" x2="452" y1="16" y2="710.6055"/><line style="stroke:#C0C0C0;stroke-width:1.0;" x1="480" x2="480" y1="16" y2="710.6055"/><line style="stroke:#C0C0C0;stroke-width:1.0;" x1="508" x2="508" y1="16" y2="710.6055"/><line style="stroke:#C0C0C0;stroke-width:1.0;" x1="516" x2="516" y1="16" y2="710.6055"/><line style="stroke:#C0C0C0;stroke-width:1.0;" x1="0" x2="0" y1="0" y2="16"/><line style="stroke:#C0C0C0;stroke-width:1.0;" x1="124" x2="124" y1="0" y2="16"/><text fill="#000000" font-family="Serif" font-size="12" font-weight="bold" lengthAdjust="spacing" textLength="49" x="37.5" y="9">Aug 2021</text><line style="stroke:#C0C0C0;stroke-width:1.0;" x1="244" x2="244" y1="0" y2="16"/><text fill="#000000" font-family="Serif" font-size="12" font-weight="bold" lengthAdjust="spacing" textLength="46" x="161" y="9">Sep 2021</text><line style="stroke:#C0C0C0;stroke-width:1.0;" x1="368" x2="368" y1="0" y2="16"/><text fill="#000000" font-family="Serif" font-size="12" font-weight="bold" lengthAdjust="spacing" textLength="45" x="283.5" y="9">Oct 2021</text><line style="stroke:#C0C0C0;stroke-width:1.0;" x1="488" x2="488" y1="0" y2="16"/><text fill="#000000" font-family="Serif" font-size="12" font-weight="bold" lengthAdjust="spacing" textLength="48" x="404" y="9">Nov 2021</text><line style="stroke:#C0C0C0;stroke-width:1.0;" x1="516" x2="516" y1="0" y2="16"/><text fill="#000000" font-family="Serif" font-size="12" font-weight="bold" lengthAdjust="spacing" textLength="19" x="492.5" y="9">Dec</text><line style="stroke:#C0C0C0;stroke-width:1.0;" x1="0" x2="516" y1="0" y2="0"/><line style="stroke:#C0C0C0;stroke-width:1.0;" x1="0" x2="516" y1="16" y2="16"/><line style="stroke:#C0C0C0;stroke-width:1.0;" x1="0" x2="516" y1="29" y2="29"/><line style="stroke:#A80036;stroke-width:1.5;" x1="59" x2="59" y1="143.7754" y2="226.7178"/><line style="stroke:#A80036;stroke-width:1.5;" x1="59" x2="67" y1="226.7178" y2="226.7178"/><polygon fill="#A80036" points="63,222.7178,63,226.7178,63,230.7178,67,226.7178" style="stroke:#A80036;stroke-width:1.5;"/><line style="stroke:#A80036;stroke-width:1.5;" x1="59" x2="59" y1="143.7754" y2="243.6729"/><line style="stroke:#A80036;stroke-width:1.5;" x1="59" x2="67" y1="243.6729" y2="243.6729"/><polygon fill="#A80036" points="63,239.6729,63,243.6729,63,247.6729,67,243.6729" style="stroke:#A80036;stroke-width:1.5;"/><line style="stroke:#008000;stroke-width:1.5;stroke-dasharray:7.0,7.0;" x1="227" x2="227" y1="233.1953" y2="422.5127"/><line style="stroke:#008000;stroke-width:1.5;stroke-dasharray:7.0,7.0;" x1="227" x2="235" y1="422.5127" y2="422.5127"/><polygon fill="#008000" points="231,418.5127,231,422.5127,231,426.5127,235,422.5127" style="stroke:#008000;stroke-width:1.5;"/><line style="stroke:#0000FF;stroke-width:1.5;stroke-dasharray:7.0,7.0;" x1="479" x2="479" y1="428.9902" y2="618.3076"/><line style="stroke:#0000FF;stroke-width:1.5;stroke-dasharray:7.0,7.0;" x1="479" x2="487" y1="618.3076" y2="618.3076"/><polygon fill="#0000FF" points="483,614.3076,483,618.3076,483,622.3076,487,618.3076" style="stroke:#0000FF;stroke-width:1.5;"/><line style="stroke:#000000;stroke-width:1.0;" x1="0" x2="5" y1="45.4775" y2="45.4775"/><line style="stroke:#000000;stroke-width:1.0;" x1="81" x2="515" y1="45.4775" y2="45.4775"/><rect fill="#008000" height="12.9551" style="stroke:none;stroke-width:1.0;" width="116" x="10" y="63.9551"/><line style="stroke:#008000;stroke-width:1.0;" x1="10" x2="126" y1="63.9551" y2="63.9551"/><line style="stroke:#008000;stroke-width:1.0;" x1="10" x2="126" y1="76.9102" y2="76.9102"/><line style="stroke:#008000;stroke-width:1.0;" x1="10" x2="10" y1="63.9551" y2="76.9102"/><line style="stroke:#008000;stroke-width:1.0;" x1="126" x2="126" y1="63.9551" y2="76.9102"/><rect fill="#0000FF" height="12.9551" style="stroke:none;stroke-width:1.0;" width="388" x="126" y="80.9102"/><line style="stroke:#0000FF;stroke-width:1.0;" x1="126" x2="514" y1="80.9102" y2="80.9102"/><line style="stroke:#0000FF;stroke-width:1.0;" x1="126" x2="514" y1="93.8652" y2="93.8652"/><line style="stroke:#0000FF;stroke-width:1.0;" x1="126" x2="126" y1="80.9102" y2="93.8652"/><line style="stroke:#0000FF;stroke-width:1.0;" x1="514" x2="514" y1="80.9102" y2="93.8652"/><line style="stroke:#000000;stroke-width:1.0;" x1="0" x2="5" y1="112.3428" y2="112.3428"/><line style="stroke:#000000;stroke-width:1.0;" x1="45" x2="515" y1="112.3428" y2="112.3428"/><rect fill="#FF0000" height="12.9551" style="stroke:none;stroke-width:1.0;" width="56" x="10" y="130.8203"/><line style="stroke:#FF0000;stroke-width:1.0;" x1="10" x2="66" y1="130.8203" y2="130.8203"/><line style="stroke:#FF0000;stroke-width:1.0;" x1="10" x2="66" y1="143.7754" y2="143.7754"/><line style="stroke:#FF0000;stroke-width:1.0;" x1="10" x2="10" y1="130.8203" y2="143.7754"/><line style="stroke:#FF0000;stroke-width:1.0;" x1="66" x2="66" y1="130.8203" y2="143.7754"/><rect fill="#FEFECE" height="12.9551" style="stroke:none;stroke-width:1.0;" width="1" x="10" y="147.7754"/><line style="stroke:#A80036;stroke-width:1.0;" x1="10" x2="11" y1="147.7754" y2="147.7754"/><line style="stroke:#A80036;stroke-width:1.0;" x1="10" x2="11" y1="160.7305" y2="160.7305"/><line style="stroke:#A80036;stroke-width:1.0;" x1="10" x2="10" y1="147.7754" y2="160.7305"/><line style="stroke:#A80036;stroke-width:1.0;" x1="11" x2="11" y1="147.7754" y2="160.7305"/><rect fill="#FEFECE" height="12.9551" style="stroke:none;stroke-width:1.0;" width="1" x="38" y="164.7305"/><line style="stroke:#A80036;stroke-width:1.0;" x1="38" x2="39" y1="164.7305" y2="164.7305"/><line style="stroke:#A80036;stroke-width:1.0;" x1="38" x2="39" y1="177.6855" y2="177.6855"/><line style="stroke:#A80036;stroke-width:1.0;" x1="38" x2="38" y1="164.7305" y2="177.6855"/><line style="stroke:#A80036;stroke-width:1.0;" x1="39" x2="39" y1="164.7305" y2="177.6855"/><path d="M64,196.6406 L64,217.2402 L234,217.2402 L234,206.6406 L224,196.6406 L64,196.6406 " fill="#FBFB77" style="stroke:#A80036;stroke-width:1.0;"/><path d="M224,196.6406 L224,206.6406 L234,206.6406 L224,196.6406 " fill="#FBFB77" style="stroke:#A80036;stroke-width:1.0;"/><text fill="#000000" font-family="sans-serif" font-size="9" lengthAdjust="spacing" textLength="149" x="70" y="210.3418">Entrega: Termo de Compromisso</text><rect fill="#FEFECE" height="12.9551" style="stroke:none;stroke-width:1.0;" width="1" x="66" y="181.6855"/><line style="stroke:#A80036;stroke-width:1.0;" x1="66" x2="67" y1="181.6855" y2="181.6855"/><line style="stroke:#A80036;stroke-width:1.0;" x1="66" x2="67" y1="194.6406" y2="194.6406"/><line style="stroke:#A80036;stroke-width:1.0;" x1="66" x2="66" y1="181.6855" y2="194.6406"/><line style="stroke:#A80036;stroke-width:1.0;" x1="67" x2="67" y1="181.6855" y2="194.6406"/><rect fill="#FEFECE" height="12.9551" style="stroke:none;stroke-width:1.0;" width="164" x="70" y="220.2402"/><line style="stroke:#A80036;stroke-width:1.0;" x1="70" x2="234" y1="220.2402" y2="220.2402"/><line style="stroke:#A80036;stroke-width:1.0;" x1="70" x2="234" y1="233.1953" y2="233.1953"/><line style="stroke:#A80036;stroke-width:1.0;" x1="70" x2="70" y1="220.2402" y2="233.1953"/><line style="stroke:#A80036;stroke-width:1.0;" x1="234" x2="234" y1="220.2402" y2="233.1953"/><rect fill="#FEFECE" height="12.9551" style="stroke:none;stroke-width:1.0;" width="192" x="70" y="237.1953"/><line style="stroke:#A80036;stroke-width:1.0;" x1="70" x2="262" y1="237.1953" y2="237.1953"/><line style="stroke:#A80036;stroke-width:1.0;" x1="70" x2="262" y1="250.1504" y2="250.1504"/><line style="stroke:#A80036;stroke-width:1.0;" x1="70" x2="70" y1="237.1953" y2="250.1504"/><line style="stroke:#A80036;stroke-width:1.0;" x1="262" x2="262" y1="237.1953" y2="250.1504"/><rect fill="#FEFECE" height="12.9551" style="stroke:none;stroke-width:1.0;" width="1" x="94" y="254.1504"/><line style="stroke:#A80036;stroke-width:1.0;" x1="94" x2="95" y1="254.1504" y2="254.1504"/><line style="stroke:#A80036;stroke-width:1.0;" x1="94" x2="95" y1="267.1055" y2="267.1055"/><line style="stroke:#A80036;stroke-width:1.0;" x1="94" x2="94" y1="254.1504" y2="267.1055"/><line style="stroke:#A80036;stroke-width:1.0;" x1="95" x2="95" y1="254.1504" y2="267.1055"/><rect fill="#FEFECE" height="12.9551" style="stroke:none;stroke-width:1.0;" width="1" x="122" y="271.1055"/><line style="stroke:#A80036;stroke-width:1.0;" x1="122" x2="123" y1="271.1055" y2="271.1055"/><line style="stroke:#A80036;stroke-width:1.0;" x1="122" x2="123" y1="284.0605" y2="284.0605"/><line style="stroke:#A80036;stroke-width:1.0;" x1="122" x2="122" y1="271.1055" y2="284.0605"/><line style="stroke:#A80036;stroke-width:1.0;" x1="123" x2="123" y1="271.1055" y2="284.0605"/><rect fill="#FEFECE" height="12.9551" style="stroke:none;stroke-width:1.0;" width="1" x="150" y="288.0605"/><line style="stroke:#A80036;stroke-width:1.0;" x1="150" x2="151" y1="288.0605" y2="288.0605"/><line style="stroke:#A80036;stroke-width:1.0;" x1="150" x2="151" y1="301.0156" y2="301.0156"/><line style="stroke:#A80036;stroke-width:1.0;" x1="150" x2="150" y1="288.0605" y2="301.0156"/><line style="stroke:#A80036;stroke-width:1.0;" x1="151" x2="151" y1="288.0605" y2="301.0156"/><rect fill="#FEFECE" height="12.9551" style="stroke:none;stroke-width:1.0;" width="1" x="178" y="305.0156"/><line style="stroke:#A80036;stroke-width:1.0;" x1="178" x2="179" y1="305.0156" y2="305.0156"/><line style="stroke:#A80036;stroke-width:1.0;" x1="178" x2="179" y1="317.9707" y2="317.9707"/><line style="stroke:#A80036;stroke-width:1.0;" x1="178" x2="178" y1="305.0156" y2="317.9707"/><line style="stroke:#A80036;stroke-width:1.0;" x1="179" x2="179" y1="305.0156" y2="317.9707"/><rect fill="#FEFECE" height="12.9551" style="stroke:none;stroke-width:1.0;" width="1" x="206" y="321.9707"/><line style="stroke:#A80036;stroke-width:1.0;" x1="206" x2="207" y1="321.9707" y2="321.9707"/><line style="stroke:#A80036;stroke-width:1.0;" x1="206" x2="207" y1="334.9258" y2="334.9258"/><line style="stroke:#A80036;stroke-width:1.0;" x1="206" x2="206" y1="321.9707" y2="334.9258"/><line style="stroke:#A80036;stroke-width:1.0;" x1="207" x2="207" y1="321.9707" y2="334.9258"/><path d="M232,353.8809 L232,374.4805 L374,374.4805 L374,363.8809 L364,353.8809 L232,353.8809 " fill="#FBFB77" style="stroke:#A80036;stroke-width:1.0;"/><path d="M364,353.8809 L364,363.8809 L374,363.8809 L364,353.8809 " fill="#FBFB77" style="stroke:#A80036;stroke-width:1.0;"/><text fill="#000000" font-family="sans-serif" font-size="9" lengthAdjust="spacing" textLength="118" x="238" y="367.582">Entrega: Pré-projeto (BCC)</text><rect fill="#FEFECE" height="12.9551" style="stroke:none;stroke-width:1.0;" width="1" x="234" y="338.9258"/><line style="stroke:#A80036;stroke-width:1.0;" x1="234" x2="235" y1="338.9258" y2="338.9258"/><line style="stroke:#A80036;stroke-width:1.0;" x1="234" x2="235" y1="351.8809" y2="351.8809"/><line style="stroke:#A80036;stroke-width:1.0;" x1="234" x2="234" y1="338.9258" y2="351.8809"/><line style="stroke:#A80036;stroke-width:1.0;" x1="235" x2="235" y1="338.9258" y2="351.8809"/><path d="M260,392.4355 L260,413.0352 L398,413.0352 L398,402.4355 L388,392.4355 L260,392.4355 " fill="#FBFB77" style="stroke:#A80036;stroke-width:1.0;"/><path d="M388,392.4355 L388,402.4355 L398,402.4355 L388,392.4355 " fill="#FBFB77" style="stroke:#A80036;stroke-width:1.0;"/><text fill="#000000" font-family="sans-serif" font-size="9" lengthAdjust="spacing" textLength="114" x="266" y="406.1367">Entrega: Pré-projeto (SIS)</text><rect fill="#FEFECE" height="12.9551" style="stroke:none;stroke-width:1.0;" width="1" x="262" y="377.4805"/><line style="stroke:#A80036;stroke-width:1.0;" x1="262" x2="263" y1="377.4805" y2="377.4805"/><line style="stroke:#A80036;stroke-width:1.0;" x1="262" x2="263" y1="390.4355" y2="390.4355"/><line style="stroke:#A80036;stroke-width:1.0;" x1="262" x2="262" y1="377.4805" y2="390.4355"/><line style="stroke:#A80036;stroke-width:1.0;" x1="263" x2="263" y1="377.4805" y2="390.4355"/><rect fill="#FEFECE" height="12.9551" style="stroke:none;stroke-width:1.0;" width="248" x="238" y="416.0352"/><line style="stroke:#A80036;stroke-width:1.0;" x1="238" x2="486" y1="416.0352" y2="416.0352"/><line style="stroke:#A80036;stroke-width:1.0;" x1="238" x2="486" y1="428.9902" y2="428.9902"/><line style="stroke:#A80036;stroke-width:1.0;" x1="238" x2="238" y1="416.0352" y2="428.9902"/><line style="stroke:#A80036;stroke-width:1.0;" x1="486" x2="486" y1="416.0352" y2="428.9902"/><rect fill="#FEFECE" height="12.9551" style="stroke:none;stroke-width:1.0;" width="1" x="290" y="432.9902"/><line style="stroke:#A80036;stroke-width:1.0;" x1="290" x2="291" y1="432.9902" y2="432.9902"/><line style="stroke:#A80036;stroke-width:1.0;" x1="290" x2="291" y1="445.9453" y2="445.9453"/><line style="stroke:#A80036;stroke-width:1.0;" x1="290" x2="290" y1="432.9902" y2="445.9453"/><line style="stroke:#A80036;stroke-width:1.0;" x1="291" x2="291" y1="432.9902" y2="445.9453"/><path d="M316,464.9004 L316,485.5 L397,485.5 L397,474.9004 L387,464.9004 L316,464.9004 " fill="#FBFB77" style="stroke:#A80036;stroke-width:1.0;"/><path d="M387,464.9004 L387,474.9004 L397,474.9004 L387,464.9004 " fill="#FBFB77" style="stroke:#A80036;stroke-width:1.0;"/><text fill="#000000" font-family="sans-serif" font-size="9" lengthAdjust="spacing" textLength="57" x="322" y="478.6016">Bancas (BCC)</text><rect fill="#FEFECE" height="12.9551" style="stroke:none;stroke-width:1.0;" width="1" x="318" y="449.9453"/><line style="stroke:#A80036;stroke-width:1.0;" x1="318" x2="319" y1="449.9453" y2="449.9453"/><line style="stroke:#A80036;stroke-width:1.0;" x1="318" x2="319" y1="462.9004" y2="462.9004"/><line style="stroke:#A80036;stroke-width:1.0;" x1="318" x2="318" y1="449.9453" y2="462.9004"/><line style="stroke:#A80036;stroke-width:1.0;" x1="319" x2="319" y1="449.9453" y2="462.9004"/><rect fill="#FEFECE" height="12.9551" style="stroke:none;stroke-width:1.0;" width="1" x="346" y="488.5"/><line style="stroke:#A80036;stroke-width:1.0;" x1="346" x2="347" y1="488.5" y2="488.5"/><line style="stroke:#A80036;stroke-width:1.0;" x1="346" x2="347" y1="501.4551" y2="501.4551"/><line style="stroke:#A80036;stroke-width:1.0;" x1="346" x2="346" y1="488.5" y2="501.4551"/><line style="stroke:#A80036;stroke-width:1.0;" x1="347" x2="347" y1="488.5" y2="501.4551"/><rect fill="#FEFECE" height="12.9551" style="stroke:none;stroke-width:1.0;" width="1" x="374" y="505.4551"/><line style="stroke:#A80036;stroke-width:1.0;" x1="374" x2="375" y1="505.4551" y2="505.4551"/><line style="stroke:#A80036;stroke-width:1.0;" x1="374" x2="375" y1="518.4102" y2="518.4102"/><line style="stroke:#A80036;stroke-width:1.0;" x1="374" x2="374" y1="505.4551" y2="518.4102"/><line style="stroke:#A80036;stroke-width:1.0;" x1="375" x2="375" y1="505.4551" y2="518.4102"/><rect fill="#FEFECE" height="12.9551" style="stroke:none;stroke-width:1.0;" width="1" x="402" y="522.4102"/><line style="stroke:#A80036;stroke-width:1.0;" x1="402" x2="403" y1="522.4102" y2="522.4102"/><line style="stroke:#A80036;stroke-width:1.0;" x1="402" x2="403" y1="535.3652" y2="535.3652"/><line style="stroke:#A80036;stroke-width:1.0;" x1="402" x2="402" y1="522.4102" y2="535.3652"/><line style="stroke:#A80036;stroke-width:1.0;" x1="403" x2="403" y1="522.4102" y2="535.3652"/><rect fill="#FEFECE" height="12.9551" style="stroke:none;stroke-width:1.0;" width="1" x="430" y="539.3652"/><line style="stroke:#A80036;stroke-width:1.0;" x1="430" x2="431" y1="539.3652" y2="539.3652"/><line style="stroke:#A80036;stroke-width:1.0;" x1="430" x2="431" y1="552.3203" y2="552.3203"/><line style="stroke:#A80036;stroke-width:1.0;" x1="430" x2="430" y1="539.3652" y2="552.3203"/><line style="stroke:#A80036;stroke-width:1.0;" x1="431" x2="431" y1="539.3652" y2="552.3203"/><rect fill="#FEFECE" height="12.9551" style="stroke:none;stroke-width:1.0;" width="1" x="458" y="556.3203"/><line style="stroke:#A80036;stroke-width:1.0;" x1="458" x2="459" y1="556.3203" y2="556.3203"/><line style="stroke:#A80036;stroke-width:1.0;" x1="458" x2="459" y1="569.2754" y2="569.2754"/><line style="stroke:#A80036;stroke-width:1.0;" x1="458" x2="458" y1="556.3203" y2="569.2754"/><line style="stroke:#A80036;stroke-width:1.0;" x1="459" x2="459" y1="556.3203" y2="569.2754"/><path d="M484,588.2305 L484,608.8301 L580,608.8301 L580,598.2305 L570,588.2305 L484,588.2305 " fill="#FBFB77" style="stroke:#A80036;stroke-width:1.0;"/><path d="M570,588.2305 L570,598.2305 L580,598.2305 L570,588.2305 " fill="#FBFB77" style="stroke:#A80036;stroke-width:1.0;"/><text fill="#000000" font-family="sans-serif" font-size="9" lengthAdjust="spacing" textLength="72" x="490" y="601.9316">Entrega: Projeto</text><rect fill="#FEFECE" height="12.9551" style="stroke:none;stroke-width:1.0;" width="1" x="486" y="573.2754"/><line style="stroke:#A80036;stroke-width:1.0;" x1="486" x2="487" y1="573.2754" y2="573.2754"/><line style="stroke:#A80036;stroke-width:1.0;" x1="486" x2="487" y1="586.2305" y2="586.2305"/><line style="stroke:#A80036;stroke-width:1.0;" x1="486" x2="486" y1="573.2754" y2="586.2305"/><line style="stroke:#A80036;stroke-width:1.0;" x1="487" x2="487" y1="573.2754" y2="586.2305"/><rect fill="#FEFECE" height="12.9551" style="stroke:none;stroke-width:1.0;" width="24" x="490" y="611.8301"/><line style="stroke:#A80036;stroke-width:1.0;" x1="490" x2="514" y1="611.8301" y2="611.8301"/><line style="stroke:#A80036;stroke-width:1.0;" x1="490" x2="514" y1="624.7852" y2="624.7852"/><line style="stroke:#A80036;stroke-width:1.0;" x1="490" x2="490" y1="611.8301" y2="624.7852"/><line style="stroke:#A80036;stroke-width:1.0;" x1="514" x2="514" y1="611.8301" y2="624.7852"/><rect fill="#FEFECE" height="12.9551" style="stroke:none;stroke-width:1.0;" width="1" x="514" y="628.7852"/><line style="stroke:#A80036;stroke-width:1.0;" x1="514" x2="515" y1="628.7852" y2="628.7852"/><line style="stroke:#A80036;stroke-width:1.0;" x1="514" x2="515" y1="641.7402" y2="641.7402"/><line style="stroke:#A80036;stroke-width:1.0;" x1="514" x2="514" y1="628.7852" y2="641.7402"/><line style="stroke:#A80036;stroke-width:1.0;" x1="515" x2="515" y1="628.7852" y2="641.7402"/><line style="stroke:#000000;stroke-width:1.0;" x1="0" x2="5" y1="660.2178" y2="660.2178"/><line style="stroke:#000000;stroke-width:1.0;" x1="61" x2="515" y1="660.2178" y2="660.2178"/><rect fill="#FEFECE" height="12.9551" style="stroke:none;stroke-width:1.0;" width="1" x="150" y="678.6953"/><line style="stroke:#A80036;stroke-width:1.0;" x1="150" x2="151" y1="678.6953" y2="678.6953"/><line style="stroke:#A80036;stroke-width:1.0;" x1="150" x2="151" y1="691.6504" y2="691.6504"/><line style="stroke:#A80036;stroke-width:1.0;" x1="150" x2="150" y1="678.6953" y2="691.6504"/><line style="stroke:#A80036;stroke-width:1.0;" x1="151" x2="151" y1="678.6953" y2="691.6504"/><rect fill="#FEFECE" height="12.9551" style="stroke:none;stroke-width:1.0;" width="1" x="290" y="695.6504"/><line style="stroke:#A80036;stroke-width:1.0;" x1="290" x2="291" y1="695.6504" y2="695.6504"/><line style="stroke:#A80036;stroke-width:1.0;" x1="290" x2="291" y1="708.6055" y2="708.6055"/><line style="stroke:#A80036;stroke-width:1.0;" x1="290" x2="290" y1="695.6504" y2="708.6055"/><line style="stroke:#A80036;stroke-width:1.0;" x1="291" x2="291" y1="695.6504" y2="708.6055"/><text fill="#000000" font-family="sans-serif" font-size="11" lengthAdjust="spacing" textLength="66" x="10" y="49.6348">cronograma</text><text fill="#000000" font-family="sans-serif" font-size="11" lengthAdjust="spacing" textLength="63" x="14" y="74.5898">completado</text><text fill="#000000" font-family="sans-serif" font-size="11" lengthAdjust="spacing" textLength="23" x="130" y="91.5449">falta</text><text fill="#000000" font-family="sans-serif" font-size="11" lengthAdjust="spacing" textLength="30" x="10" y="116.5">Aulas</text><text fill="#000000" font-family="sans-serif" font-size="11" lengthAdjust="spacing" textLength="35" x="14" y="141.4551">Termo</text><text fill="#000000" font-family="sans-serif" font-size="11" lengthAdjust="spacing" textLength="38" x="14" y="158.4102">Aula01</text><text fill="#000000" font-family="sans-serif" font-size="11" lengthAdjust="spacing" textLength="38" x="42" y="175.3652">Aula02</text><text fill="#000000" font-family="sans-serif" font-size="11" lengthAdjust="spacing" textLength="38" x="70" y="192.3203">Aula03</text><text fill="#000000" font-family="sans-serif" font-size="11" lengthAdjust="spacing" textLength="95" x="74" y="230.875">Pré-projeto (BCC)</text><text fill="#000000" font-family="sans-serif" font-size="11" lengthAdjust="spacing" textLength="88" x="74" y="247.8301">Pré-projeto (SIS)</text><text fill="#000000" font-family="sans-serif" font-size="11" lengthAdjust="spacing" textLength="38" x="98" y="264.7852">Aula04</text><text fill="#000000" font-family="sans-serif" font-size="11" lengthAdjust="spacing" textLength="38" x="126" y="281.7402">Aula05</text><text fill="#000000" font-family="sans-serif" font-size="11" lengthAdjust="spacing" textLength="38" x="154" y="298.6953">Aula06</text><text fill="#000000" font-family="sans-serif" font-size="11" lengthAdjust="spacing" textLength="38" x="182" y="315.6504">Aula07</text><text fill="#000000" font-family="sans-serif" font-size="11" lengthAdjust="spacing" textLength="38" x="210" y="332.6055">Aula08</text><text fill="#000000" font-family="sans-serif" font-size="11" lengthAdjust="spacing" textLength="38" x="238" y="349.5605">Aula09</text><text fill="#000000" font-family="sans-serif" font-size="11" lengthAdjust="spacing" textLength="38" x="266" y="388.1152">Aula10</text><text fill="#000000" font-family="sans-serif" font-size="11" lengthAdjust="spacing" textLength="38" x="242" y="426.6699">Projeto</text><text fill="#000000" font-family="sans-serif" font-size="11" lengthAdjust="spacing" textLength="38" x="294" y="443.625">Aula11</text><text fill="#000000" font-family="sans-serif" font-size="11" lengthAdjust="spacing" textLength="38" x="322" y="460.5801">Aula12</text><text fill="#000000" font-family="sans-serif" font-size="11" lengthAdjust="spacing" textLength="38" x="350" y="499.1348">Aula13</text><text fill="#000000" font-family="sans-serif" font-size="11" lengthAdjust="spacing" textLength="38" x="378" y="516.0898">Aula14</text><text fill="#000000" font-family="sans-serif" font-size="11" lengthAdjust="spacing" textLength="38" x="406" y="533.0449">Aula15</text><text fill="#000000" font-family="sans-serif" font-size="11" lengthAdjust="spacing" textLength="38" x="434" y="550">Aula16</text><text fill="#000000" font-family="sans-serif" font-size="11" lengthAdjust="spacing" textLength="38" x="462" y="566.9551">Aula17</text><text fill="#000000" font-family="sans-serif" font-size="11" lengthAdjust="spacing" textLength="38" x="490" y="583.9102">Aula18</text><text fill="#000000" font-family="sans-serif" font-size="11" lengthAdjust="spacing" textLength="25" x="518" y="622.4648">Final</text><text fill="#000000" font-family="sans-serif" font-size="11" lengthAdjust="spacing" textLength="38" x="518" y="639.4199">Aula19</text><text fill="#000000" font-family="sans-serif" font-size="11" lengthAdjust="spacing" textLength="46" x="10" y="664.375">Feriados</text><text fill="#000000" font-family="sans-serif" font-size="11" lengthAdjust="spacing" textLength="78" x="154" y="689.3301">Independência</text><text fill="#000000" font-family="sans-serif" font-size="11" lengthAdjust="spacing" textLength="54" x="294" y="706.2852">Aparecida</text><line style="stroke:#C0C0C0;stroke-width:1.0;" x1="0" x2="516" y1="710.6055" y2="710.6055"/><line style="stroke:#C0C0C0;stroke-width:1.0;" x1="0" x2="0" y1="710.6055" y2="726.6055"/><line style="stroke:#C0C0C0;stroke-width:1.0;" x1="124" x2="124" y1="710.6055" y2="726.6055"/><text fill="#000000" font-family="Serif" font-size="12" font-weight="bold" lengthAdjust="spacing" textLength="49" x="37.5" y="719.6055">Aug 2021</text><line style="stroke:#C0C0C0;stroke-width:1.0;" x1="244" x2="244" y1="710.6055" y2="726.6055"/><text fill="#000000" font-family="Serif" font-size="12" font-weight="bold" lengthAdjust="spacing" textLength="46" x="161" y="719.6055">Sep 2021</text><line style="stroke:#C0C0C0;stroke-width:1.0;" x1="368" x2="368" y1="710.6055" y2="726.6055"/><text fill="#000000" font-family="Serif" font-size="12" font-weight="bold" lengthAdjust="spacing" textLength="45" x="283.5" y="719.6055">Oct 2021</text><line style="stroke:#C0C0C0;stroke-width:1.0;" x1="488" x2="488" y1="710.6055" y2="726.6055"/><text fill="#000000" font-family="Serif" font-size="12" font-weight="bold" lengthAdjust="spacing" textLength="48" x="404" y="719.6055">Nov 2021</text><line style="stroke:#C0C0C0;stroke-width:1.0;" x1="516" x2="516" y1="710.6055" y2="726.6055"/><text fill="#000000" font-family="Serif" font-size="12" font-weight="bold" lengthAdjust="spacing" textLength="19" x="492.5" y="719.6055">Dec</text><line style="stroke:#C0C0C0;stroke-width:1.0;" x1="0" x2="516" y1="726.6055" y2="726.6055"/><!--MD5=[0ce7aa31dc66bcc01a0dd0e9523e3a25]
@startgantt

ganttscale weekly

Project starts 2021-08-01

- - cronograma - - 
[completado] is colored in green
[completado] starts 2021-08-03 and ends 2021-09-01
[falta] starts 2021-09-01 and ends 2021-12-07
[falta] is colored in blue

- - Aulas - - 
[Termo] is colored in Red
[Termo]  starts 2021-08-03 and ends 2021-08-17
[Aula01] starts 2021-08-03 and ends 2021-08-03
[Aula02] starts 2021-08-10 and ends 2021-08-10
[Aula03] starts 2021-08-17 and ends 2021-08-17
note bottom
Entrega: Termo de Compromisso
end note
[Pré-projeto (BCC)] starts at [Termo]'s end
[Pré-projeto (BCC)] ends 2021-09-28
[Pré-projeto (SIS)] starts at [Termo]'s end
[Pré-projeto (SIS)] ends 2021-10-05
[Aula04] starts 2021-08-24 and ends 2021-08-24
[Aula05] starts 2021-08-31 and ends 2021-08-31
[Aula06] starts 2021-09-07 and ends 2021-09-07
[Aula07] starts 2021-09-14 and ends 2021-09-14
[Aula08] starts 2021-09-21 and ends 2021-09-21
[Aula09] starts 2021-09-28 and ends 2021-09-28
note bottom
Entrega: Pré-projeto (BCC) 
end note
[Aula10] starts 2021-10-05 and ends 2021-10-05
note bottom
Entrega: Pré-projeto (SIS) 
end note
[Projeto] starts at [Pré-projeto (BCC)]'s end with green dashed link
[Projeto] ends 2021-11-30
[Aula11] starts 2021-10-12 and ends 2021-10-12
[Aula12] starts 2021-10-19 and ends 2021-10-19
note bottom
Bancas (BCC) 
end note
[Aula13] starts 2021-10-26 and ends 2021-10-26
[Aula14] starts 2021-11-02 and ends 2021-11-02
[Aula15] starts 2021-11-09 and ends 2021-11-09
[Aula16] starts 2021-11-16 and ends 2021-11-16
[Aula17] starts 2021-11-23 and ends 2021-11-23
[Aula18] starts 2021-11-30 and ends 2021-11-30
note bottom
Entrega: Projeto 
end note
[Final] starts at [Projeto]'s end with blue dashed link
[Final] ends 2021-12-07
[Aula19] starts 2021-12-07 and ends 2021-12-07

- - Feriados - -
[Independência] starts 2021-09-07 and ends 2021-09-07
[Aparecida] starts 2021-10-12 and ends 2021-10-12


@endgantt

PlantUML version 1.2021.7(Sun May 23 09:40:07 BRT 2021)
(GPL source distribution)
Java Runtime: OpenJDK Runtime Environment
JVM: OpenJDK 64-Bit Server VM
Default Encoding: UTF-8
Language: en
Country: BR
--></g></svg>