<?xml version="1.0" encoding="us-ascii" standalone="no"?><svg xmlns="http://www.w3.org/2000/svg" xmlns:xlink="http://www.w3.org/1999/xlink" contentStyleType="text/css" height="658px" preserveAspectRatio="none" style="width:566px;height:658px;background:#FFFFFF;" version="1.1" viewBox="0 0 566 658" width="566px" zoomAndPan="magnify"><defs/><g><text fill="#000000" font-family="sans-serif" font-size="10" lengthAdjust="spacing" textLength="12" x="29" y="25.668">10</text><text fill="#000000" font-family="sans-serif" font-size="10" lengthAdjust="spacing" textLength="12" x="57" y="25.668">11</text><text fill="#000000" font-family="sans-serif" font-size="10" lengthAdjust="spacing" textLength="12" x="85" y="25.668">12</text><text fill="#000000" font-family="sans-serif" font-size="10" lengthAdjust="spacing" textLength="12" x="113" y="25.668">13</text><text fill="#000000" font-family="sans-serif" font-size="10" lengthAdjust="spacing" textLength="12" x="141" y="25.668">14</text><text fill="#000000" font-family="sans-serif" font-size="10" lengthAdjust="spacing" textLength="12" x="169" y="25.668">15</text><text fill="#000000" font-family="sans-serif" font-size="10" lengthAdjust="spacing" textLength="12" x="197" y="25.668">16</text><text fill="#000000" font-family="sans-serif" font-size="10" lengthAdjust="spacing" textLength="12" x="225" y="25.668">17</text><text fill="#000000" font-family="sans-serif" font-size="10" lengthAdjust="spacing" textLength="12" x="253" y="25.668">18</text><text fill="#000000" font-family="sans-serif" font-size="10" lengthAdjust="spacing" textLength="12" x="281" y="25.668">19</text><text fill="#000000" font-family="sans-serif" font-size="10" lengthAdjust="spacing" textLength="12" x="309" y="25.668">20</text><text fill="#000000" font-family="sans-serif" font-size="10" lengthAdjust="spacing" textLength="12" x="337" y="25.668">21</text><text fill="#000000" font-family="sans-serif" font-size="10" lengthAdjust="spacing" textLength="12" x="365" y="25.668">22</text><text fill="#000000" font-family="sans-serif" font-size="10" lengthAdjust="spacing" textLength="12" x="393" y="25.668">23</text><text fill="#000000" font-family="sans-serif" font-size="10" lengthAdjust="spacing" textLength="12" x="421" y="25.668">24</text><text fill="#000000" font-family="sans-serif" font-size="10" lengthAdjust="spacing" textLength="12" x="449" y="25.668">25</text><text fill="#000000" font-family="sans-serif" font-size="10" lengthAdjust="spacing" textLength="12" x="477" y="25.668">26</text><line style="stroke:#C0C0C0;stroke-width:1.0;" x1="24" x2="24" y1="16" y2="640.3848"/><line style="stroke:#C0C0C0;stroke-width:1.0;" x1="52" x2="52" y1="16" y2="640.3848"/><line style="stroke:#C0C0C0;stroke-width:1.0;" x1="80" x2="80" y1="16" y2="640.3848"/><line style="stroke:#C0C0C0;stroke-width:1.0;" x1="108" x2="108" y1="16" y2="640.3848"/><line style="stroke:#C0C0C0;stroke-width:1.0;" x1="136" x2="136" y1="16" y2="640.3848"/><line style="stroke:#C0C0C0;stroke-width:1.0;" x1="164" x2="164" y1="16" y2="640.3848"/><line style="stroke:#C0C0C0;stroke-width:1.0;" x1="192" x2="192" y1="16" y2="640.3848"/><line style="stroke:#C0C0C0;stroke-width:1.0;" x1="220" x2="220" y1="16" y2="640.3848"/><line style="stroke:#C0C0C0;stroke-width:1.0;" x1="248" x2="248" y1="16" y2="640.3848"/><line style="stroke:#C0C0C0;stroke-width:1.0;" x1="276" x2="276" y1="16" y2="640.3848"/><line style="stroke:#C0C0C0;stroke-width:1.0;" x1="304" x2="304" y1="16" y2="640.3848"/><line style="stroke:#C0C0C0;stroke-width:1.0;" x1="332" x2="332" y1="16" y2="640.3848"/><line style="stroke:#C0C0C0;stroke-width:1.0;" x1="360" x2="360" y1="16" y2="640.3848"/><line style="stroke:#C0C0C0;stroke-width:1.0;" x1="388" x2="388" y1="16" y2="640.3848"/><line style="stroke:#C0C0C0;stroke-width:1.0;" x1="416" x2="416" y1="16" y2="640.3848"/><line style="stroke:#C0C0C0;stroke-width:1.0;" x1="444" x2="444" y1="16" y2="640.3848"/><line style="stroke:#C0C0C0;stroke-width:1.0;" x1="472" x2="472" y1="16" y2="640.3848"/><line style="stroke:#C0C0C0;stroke-width:1.0;" x1="480" x2="480" y1="16" y2="640.3848"/><line style="stroke:#C0C0C0;stroke-width:1.0;" x1="0" x2="0" y1="0" y2="16"/><line style="stroke:#C0C0C0;stroke-width:1.0;" x1="12" x2="12" y1="0" y2="16"/><text fill="#000000" font-family="sans-serif" font-size="12" font-weight="bold" lengthAdjust="spacing" textLength="22" x="0" y="11.6016">Feb</text><line style="stroke:#C0C0C0;stroke-width:1.0;" x1="136" x2="136" y1="0" y2="16"/><text fill="#000000" font-family="sans-serif" font-size="12" font-weight="bold" lengthAdjust="spacing" textLength="59" x="44.5" y="11.6016">Mar 2024</text><line style="stroke:#C0C0C0;stroke-width:1.0;" x1="256" x2="256" y1="0" y2="16"/><text fill="#000000" font-family="sans-serif" font-size="12" font-weight="bold" lengthAdjust="spacing" textLength="58" x="167" y="11.6016">Apr 2024</text><line style="stroke:#C0C0C0;stroke-width:1.0;" x1="380" x2="380" y1="0" y2="16"/><text fill="#000000" font-family="sans-serif" font-size="12" font-weight="bold" lengthAdjust="spacing" textLength="61" x="287.5" y="11.6016">May 2024</text><line style="stroke:#C0C0C0;stroke-width:1.0;" x1="480" x2="480" y1="0" y2="16"/><text fill="#000000" font-family="sans-serif" font-size="12" font-weight="bold" lengthAdjust="spacing" textLength="57" x="401.5" y="11.6016">Jun 2024</text><line style="stroke:#C0C0C0;stroke-width:1.0;" x1="0" x2="480" y1="0" y2="0"/><line style="stroke:#C0C0C0;stroke-width:1.0;" x1="0" x2="480" y1="16" y2="16"/><line style="stroke:#C0C0C0;stroke-width:1.0;" x1="0" x2="480" y1="27" y2="27"/><line style="stroke:#181818;stroke-width:1.5;" x1="51" x2="51" y1="141.7754" y2="223.7178"/><line style="stroke:#181818;stroke-width:1.5;" x1="51" x2="59" y1="223.7178" y2="223.7178"/><polygon fill="#181818" points="55,219.7178,55,223.7178,55,227.7178,59,223.7178" style="stroke:#181818;stroke-width:1.5;"/><line style="stroke:#008000;stroke-width:1.5;stroke-dasharray:7.0,7.0;" x1="219" x2="219" y1="230.1953" y2="379.958"/><line style="stroke:#008000;stroke-width:1.5;stroke-dasharray:7.0,7.0;" x1="219" x2="227" y1="379.958" y2="379.958"/><polygon fill="#008000" points="223,375.958,223,379.958,223,383.958,227,379.958" style="stroke:#008000;stroke-width:1.5;"/><line style="stroke:#00FFFF;stroke-width:1.5;stroke-dasharray:7.0,7.0;" x1="331" x2="331" y1="386.4355" y2="488.9775"/><line style="stroke:#00FFFF;stroke-width:1.5;stroke-dasharray:7.0,7.0;" x1="331" x2="339" y1="488.9775" y2="488.9775"/><polygon fill="#00FFFF" points="335,484.9775,335,488.9775,335,492.9775,339,488.9775" style="stroke:#00FFFF;stroke-width:1.5;"/><line style="stroke:#0000FF;stroke-width:1.5;stroke-dasharray:7.0,7.0;" x1="443" x2="443" y1="495.4551" y2="594.3525"/><line style="stroke:#0000FF;stroke-width:1.5;stroke-dasharray:7.0,7.0;" x1="443" x2="451" y1="594.3525" y2="594.3525"/><polygon fill="#0000FF" points="447,590.3525,447,594.3525,447,598.3525,451,594.3525" style="stroke:#0000FF;stroke-width:1.5;"/><line style="stroke:#181818;stroke-width:1.0;" x1="0" x2="5" y1="43.4775" y2="43.4775"/><line style="stroke:#181818;stroke-width:1.0;" x1="81" x2="479" y1="43.4775" y2="43.4775"/><rect fill="#008000" height="12.9551" style="stroke:none;stroke-width:1.0;" width="336" x="2" y="61.9551"/><line style="stroke:#008000;stroke-width:1.0;" x1="2" x2="338" y1="61.9551" y2="61.9551"/><line style="stroke:#008000;stroke-width:1.0;" x1="2" x2="338" y1="74.9102" y2="74.9102"/><line style="stroke:#008000;stroke-width:1.0;" x1="2" x2="2" y1="61.9551" y2="74.9102"/><line style="stroke:#008000;stroke-width:1.0;" x1="338" x2="338" y1="61.9551" y2="74.9102"/><rect fill="#0000FF" height="12.9551" style="stroke:none;stroke-width:1.0;" width="140" x="338" y="78.9102"/><line style="stroke:#0000FF;stroke-width:1.0;" x1="338" x2="478" y1="78.9102" y2="78.9102"/><line style="stroke:#0000FF;stroke-width:1.0;" x1="338" x2="478" y1="91.8652" y2="91.8652"/><line style="stroke:#0000FF;stroke-width:1.0;" x1="338" x2="338" y1="78.9102" y2="91.8652"/><line style="stroke:#0000FF;stroke-width:1.0;" x1="478" x2="478" y1="78.9102" y2="91.8652"/><line style="stroke:#181818;stroke-width:1.0;" x1="0" x2="5" y1="110.3428" y2="110.3428"/><line style="stroke:#181818;stroke-width:1.0;" x1="45" x2="479" y1="110.3428" y2="110.3428"/><rect fill="#FF0000" height="12.9551" style="stroke:none;stroke-width:1.0;" width="56" x="2" y="128.8203"/><line style="stroke:#FF0000;stroke-width:1.0;" x1="2" x2="58" y1="128.8203" y2="128.8203"/><line style="stroke:#FF0000;stroke-width:1.0;" x1="2" x2="58" y1="141.7754" y2="141.7754"/><line style="stroke:#FF0000;stroke-width:1.0;" x1="2" x2="2" y1="128.8203" y2="141.7754"/><line style="stroke:#FF0000;stroke-width:1.0;" x1="58" x2="58" y1="128.8203" y2="141.7754"/><rect fill="#E2E2F0" height="12.9551" style="stroke:none;stroke-width:1.0;" width="1" x="2" y="145.7754"/><line style="stroke:#181818;stroke-width:1.0;" x1="2" x2="3" y1="145.7754" y2="145.7754"/><line style="stroke:#181818;stroke-width:1.0;" x1="2" x2="3" y1="158.7305" y2="158.7305"/><line style="stroke:#181818;stroke-width:1.0;" x1="2" x2="2" y1="145.7754" y2="158.7305"/><line style="stroke:#181818;stroke-width:1.0;" x1="3" x2="3" y1="145.7754" y2="158.7305"/><rect fill="#E2E2F0" height="12.9551" style="stroke:none;stroke-width:1.0;" width="1" x="30" y="162.7305"/><line style="stroke:#181818;stroke-width:1.0;" x1="30" x2="31" y1="162.7305" y2="162.7305"/><line style="stroke:#181818;stroke-width:1.0;" x1="30" x2="31" y1="175.6855" y2="175.6855"/><line style="stroke:#181818;stroke-width:1.0;" x1="30" x2="30" y1="162.7305" y2="175.6855"/><line style="stroke:#181818;stroke-width:1.0;" x1="31" x2="31" y1="162.7305" y2="175.6855"/><path d="M56,194.6406 L56,215.2402 L226,215.2402 L226,204.6406 L216,194.6406 L56,194.6406 " fill="#FEFFDD" style="stroke:#181818;stroke-width:0.5;"/><path d="M216,194.6406 L216,204.6406 L226,204.6406 L216,194.6406 " fill="#FEFFDD" style="stroke:#181818;stroke-width:0.5;"/><text fill="#000000" font-family="sans-serif" font-size="9" lengthAdjust="spacing" textLength="149" x="62" y="208.3418">Entrega: Termo de Compromisso</text><rect fill="#E2E2F0" height="12.9551" style="stroke:none;stroke-width:1.0;" width="1" x="58" y="179.6855"/><line style="stroke:#181818;stroke-width:1.0;" x1="58" x2="59" y1="179.6855" y2="179.6855"/><line style="stroke:#181818;stroke-width:1.0;" x1="58" x2="59" y1="192.6406" y2="192.6406"/><line style="stroke:#181818;stroke-width:1.0;" x1="58" x2="58" y1="179.6855" y2="192.6406"/><line style="stroke:#181818;stroke-width:1.0;" x1="59" x2="59" y1="179.6855" y2="192.6406"/><rect fill="#E2E2F0" height="12.9551" style="stroke:none;stroke-width:1.0;" width="164" x="62" y="217.2402"/><line style="stroke:#181818;stroke-width:1.0;" x1="62" x2="226" y1="217.2402" y2="217.2402"/><line style="stroke:#181818;stroke-width:1.0;" x1="62" x2="226" y1="230.1953" y2="230.1953"/><line style="stroke:#181818;stroke-width:1.0;" x1="62" x2="62" y1="217.2402" y2="230.1953"/><line style="stroke:#181818;stroke-width:1.0;" x1="226" x2="226" y1="217.2402" y2="230.1953"/><rect fill="#E2E2F0" height="12.9551" style="stroke:none;stroke-width:1.0;" width="1" x="86" y="234.1953"/><line style="stroke:#181818;stroke-width:1.0;" x1="86" x2="87" y1="234.1953" y2="234.1953"/><line style="stroke:#181818;stroke-width:1.0;" x1="86" x2="87" y1="247.1504" y2="247.1504"/><line style="stroke:#181818;stroke-width:1.0;" x1="86" x2="86" y1="234.1953" y2="247.1504"/><line style="stroke:#181818;stroke-width:1.0;" x1="87" x2="87" y1="234.1953" y2="247.1504"/><rect fill="#E2E2F0" height="12.9551" style="stroke:none;stroke-width:1.0;" width="1" x="114" y="251.1504"/><line style="stroke:#181818;stroke-width:1.0;" x1="114" x2="115" y1="251.1504" y2="251.1504"/><line style="stroke:#181818;stroke-width:1.0;" x1="114" x2="115" y1="264.1055" y2="264.1055"/><line style="stroke:#181818;stroke-width:1.0;" x1="114" x2="114" y1="251.1504" y2="264.1055"/><line style="stroke:#181818;stroke-width:1.0;" x1="115" x2="115" y1="251.1504" y2="264.1055"/><rect fill="#E2E2F0" height="12.9551" style="stroke:none;stroke-width:1.0;" width="1" x="142" y="268.1055"/><line style="stroke:#181818;stroke-width:1.0;" x1="142" x2="143" y1="268.1055" y2="268.1055"/><line style="stroke:#181818;stroke-width:1.0;" x1="142" x2="143" y1="281.0605" y2="281.0605"/><line style="stroke:#181818;stroke-width:1.0;" x1="142" x2="142" y1="268.1055" y2="281.0605"/><line style="stroke:#181818;stroke-width:1.0;" x1="143" x2="143" y1="268.1055" y2="281.0605"/><rect fill="#E2E2F0" height="12.9551" style="stroke:none;stroke-width:1.0;" width="1" x="170" y="285.0605"/><line style="stroke:#181818;stroke-width:1.0;" x1="170" x2="171" y1="285.0605" y2="285.0605"/><line style="stroke:#181818;stroke-width:1.0;" x1="170" x2="171" y1="298.0156" y2="298.0156"/><line style="stroke:#181818;stroke-width:1.0;" x1="170" x2="170" y1="285.0605" y2="298.0156"/><line style="stroke:#181818;stroke-width:1.0;" x1="171" x2="171" y1="285.0605" y2="298.0156"/><rect fill="#E2E2F0" height="12.9551" style="stroke:none;stroke-width:1.0;" width="1" x="198" y="302.0156"/><line style="stroke:#181818;stroke-width:1.0;" x1="198" x2="199" y1="302.0156" y2="302.0156"/><line style="stroke:#181818;stroke-width:1.0;" x1="198" x2="199" y1="314.9707" y2="314.9707"/><line style="stroke:#181818;stroke-width:1.0;" x1="198" x2="198" y1="302.0156" y2="314.9707"/><line style="stroke:#181818;stroke-width:1.0;" x1="199" x2="199" y1="302.0156" y2="314.9707"/><path d="M224,333.9258 L224,354.5254 L366,354.5254 L366,343.9258 L356,333.9258 L224,333.9258 " fill="#FEFFDD" style="stroke:#181818;stroke-width:0.5;"/><path d="M356,333.9258 L356,343.9258 L366,343.9258 L356,333.9258 " fill="#FEFFDD" style="stroke:#181818;stroke-width:0.5;"/><text fill="#000000" font-family="sans-serif" font-size="9" lengthAdjust="spacing" textLength="118" x="230" y="347.627">Entrega: Pr&#233;-projeto (BCC)</text><rect fill="#E2E2F0" height="12.9551" style="stroke:none;stroke-width:1.0;" width="1" x="226" y="318.9707"/><line style="stroke:#181818;stroke-width:1.0;" x1="226" x2="227" y1="318.9707" y2="318.9707"/><line style="stroke:#181818;stroke-width:1.0;" x1="226" x2="227" y1="331.9258" y2="331.9258"/><line style="stroke:#181818;stroke-width:1.0;" x1="226" x2="226" y1="318.9707" y2="331.9258"/><line style="stroke:#181818;stroke-width:1.0;" x1="227" x2="227" y1="318.9707" y2="331.9258"/><rect fill="#E2E2F0" height="12.9551" style="stroke:none;stroke-width:1.0;" width="1" x="254" y="356.5254"/><line style="stroke:#181818;stroke-width:1.0;" x1="254" x2="255" y1="356.5254" y2="356.5254"/><line style="stroke:#181818;stroke-width:1.0;" x1="254" x2="255" y1="369.4805" y2="369.4805"/><line style="stroke:#181818;stroke-width:1.0;" x1="254" x2="254" y1="356.5254" y2="369.4805"/><line style="stroke:#181818;stroke-width:1.0;" x1="255" x2="255" y1="356.5254" y2="369.4805"/><rect fill="#E2E2F0" height="12.9551" style="stroke:none;stroke-width:1.0;" width="108" x="230" y="373.4805"/><line style="stroke:#181818;stroke-width:1.0;" x1="230" x2="338" y1="373.4805" y2="373.4805"/><line style="stroke:#181818;stroke-width:1.0;" x1="230" x2="338" y1="386.4355" y2="386.4355"/><line style="stroke:#181818;stroke-width:1.0;" x1="230" x2="230" y1="373.4805" y2="386.4355"/><line style="stroke:#181818;stroke-width:1.0;" x1="338" x2="338" y1="373.4805" y2="386.4355"/><path d="M280,405.3906 L280,425.9902 L361,425.9902 L361,415.3906 L351,405.3906 L280,405.3906 " fill="#FEFFDD" style="stroke:#181818;stroke-width:0.5;"/><path d="M351,405.3906 L351,415.3906 L361,415.3906 L351,405.3906 " fill="#FEFFDD" style="stroke:#181818;stroke-width:0.5;"/><text fill="#000000" font-family="sans-serif" font-size="9" lengthAdjust="spacing" textLength="57" x="286" y="419.0918">Bancas (BCC)</text><rect fill="#E2E2F0" height="12.9551" style="stroke:none;stroke-width:1.0;" width="1" x="282" y="390.4355"/><line style="stroke:#181818;stroke-width:1.0;" x1="282" x2="283" y1="390.4355" y2="390.4355"/><line style="stroke:#181818;stroke-width:1.0;" x1="282" x2="283" y1="403.3906" y2="403.3906"/><line style="stroke:#181818;stroke-width:1.0;" x1="282" x2="282" y1="390.4355" y2="403.3906"/><line style="stroke:#181818;stroke-width:1.0;" x1="283" x2="283" y1="390.4355" y2="403.3906"/><path d="M308,442.9453 L308,463.5449 L389,463.5449 L389,452.9453 L379,442.9453 L308,442.9453 " fill="#FEFFDD" style="stroke:#181818;stroke-width:0.5;"/><path d="M379,442.9453 L379,452.9453 L389,452.9453 L379,442.9453 " fill="#FEFFDD" style="stroke:#181818;stroke-width:0.5;"/><text fill="#000000" font-family="sans-serif" font-size="9" lengthAdjust="spacing" textLength="57" x="314" y="456.6465">Bancas (BCC)</text><rect fill="#E2E2F0" height="12.9551" style="stroke:none;stroke-width:1.0;" width="1" x="310" y="427.9902"/><line style="stroke:#181818;stroke-width:1.0;" x1="310" x2="311" y1="427.9902" y2="427.9902"/><line style="stroke:#181818;stroke-width:1.0;" x1="310" x2="311" y1="440.9453" y2="440.9453"/><line style="stroke:#181818;stroke-width:1.0;" x1="310" x2="310" y1="427.9902" y2="440.9453"/><line style="stroke:#181818;stroke-width:1.0;" x1="311" x2="311" y1="427.9902" y2="440.9453"/><rect fill="#E2E2F0" height="12.9551" style="stroke:none;stroke-width:1.0;" width="1" x="338" y="465.5449"/><line style="stroke:#181818;stroke-width:1.0;" x1="338" x2="339" y1="465.5449" y2="465.5449"/><line style="stroke:#181818;stroke-width:1.0;" x1="338" x2="339" y1="478.5" y2="478.5"/><line style="stroke:#181818;stroke-width:1.0;" x1="338" x2="338" y1="465.5449" y2="478.5"/><line style="stroke:#181818;stroke-width:1.0;" x1="339" x2="339" y1="465.5449" y2="478.5"/><rect fill="#E2E2F0" height="12.9551" style="stroke:none;stroke-width:1.0;" width="108" x="342" y="482.5"/><line style="stroke:#181818;stroke-width:1.0;" x1="342" x2="450" y1="482.5" y2="482.5"/><line style="stroke:#181818;stroke-width:1.0;" x1="342" x2="450" y1="495.4551" y2="495.4551"/><line style="stroke:#181818;stroke-width:1.0;" x1="342" x2="342" y1="482.5" y2="495.4551"/><line style="stroke:#181818;stroke-width:1.0;" x1="450" x2="450" y1="482.5" y2="495.4551"/><rect fill="#E2E2F0" height="12.9551" style="stroke:none;stroke-width:1.0;" width="1" x="366" y="499.4551"/><line style="stroke:#181818;stroke-width:1.0;" x1="366" x2="367" y1="499.4551" y2="499.4551"/><line style="stroke:#181818;stroke-width:1.0;" x1="366" x2="367" y1="512.4102" y2="512.4102"/><line style="stroke:#181818;stroke-width:1.0;" x1="366" x2="366" y1="499.4551" y2="512.4102"/><line style="stroke:#181818;stroke-width:1.0;" x1="367" x2="367" y1="499.4551" y2="512.4102"/><rect fill="#E2E2F0" height="12.9551" style="stroke:none;stroke-width:1.0;" width="1" x="394" y="516.4102"/><line style="stroke:#181818;stroke-width:1.0;" x1="394" x2="395" y1="516.4102" y2="516.4102"/><line style="stroke:#181818;stroke-width:1.0;" x1="394" x2="395" y1="529.3652" y2="529.3652"/><line style="stroke:#181818;stroke-width:1.0;" x1="394" x2="394" y1="516.4102" y2="529.3652"/><line style="stroke:#181818;stroke-width:1.0;" x1="395" x2="395" y1="516.4102" y2="529.3652"/><rect fill="#E2E2F0" height="12.9551" style="stroke:none;stroke-width:1.0;" width="1" x="422" y="533.3652"/><line style="stroke:#181818;stroke-width:1.0;" x1="422" x2="423" y1="533.3652" y2="533.3652"/><line style="stroke:#181818;stroke-width:1.0;" x1="422" x2="423" y1="546.3203" y2="546.3203"/><line style="stroke:#181818;stroke-width:1.0;" x1="422" x2="422" y1="533.3652" y2="546.3203"/><line style="stroke:#181818;stroke-width:1.0;" x1="423" x2="423" y1="533.3652" y2="546.3203"/><path d="M448,565.2754 L448,585.875 L544,585.875 L544,575.2754 L534,565.2754 L448,565.2754 " fill="#FEFFDD" style="stroke:#181818;stroke-width:0.5;"/><path d="M534,565.2754 L534,575.2754 L544,575.2754 L534,565.2754 " fill="#FEFFDD" style="stroke:#181818;stroke-width:0.5;"/><text fill="#000000" font-family="sans-serif" font-size="9" lengthAdjust="spacing" textLength="72" x="454" y="578.9766">Entrega: Projeto</text><rect fill="#E2E2F0" height="12.9551" style="stroke:none;stroke-width:1.0;" width="1" x="450" y="550.3203"/><line style="stroke:#181818;stroke-width:1.0;" x1="450" x2="451" y1="550.3203" y2="550.3203"/><line style="stroke:#181818;stroke-width:1.0;" x1="450" x2="451" y1="563.2754" y2="563.2754"/><line style="stroke:#181818;stroke-width:1.0;" x1="450" x2="450" y1="550.3203" y2="563.2754"/><line style="stroke:#181818;stroke-width:1.0;" x1="451" x2="451" y1="550.3203" y2="563.2754"/><path d="M452,602.8301 L452,623.4297 L564,623.4297 L564,612.8301 L554,602.8301 L452,602.8301 " fill="#FEFFDD" style="stroke:#181818;stroke-width:0.5;"/><path d="M554,602.8301 L554,612.8301 L564,612.8301 L554,602.8301 " fill="#FEFFDD" style="stroke:#181818;stroke-width:0.5;"/><text fill="#000000" font-family="sans-serif" font-size="9" lengthAdjust="spacing" textLength="91" x="458" y="616.5313">Avalia&#231;&#245;es: Projetos</text><rect fill="#E2E2F0" height="12.9551" style="stroke:none;stroke-width:1.0;" width="24" x="454" y="587.875"/><line style="stroke:#181818;stroke-width:1.0;" x1="454" x2="478" y1="587.875" y2="587.875"/><line style="stroke:#181818;stroke-width:1.0;" x1="454" x2="478" y1="600.8301" y2="600.8301"/><line style="stroke:#181818;stroke-width:1.0;" x1="454" x2="454" y1="587.875" y2="600.8301"/><line style="stroke:#181818;stroke-width:1.0;" x1="478" x2="478" y1="587.875" y2="600.8301"/><rect fill="#E2E2F0" height="12.9551" style="stroke:none;stroke-width:1.0;" width="1" x="478" y="625.4297"/><line style="stroke:#181818;stroke-width:1.0;" x1="478" x2="479" y1="625.4297" y2="625.4297"/><line style="stroke:#181818;stroke-width:1.0;" x1="478" x2="479" y1="638.3848" y2="638.3848"/><line style="stroke:#181818;stroke-width:1.0;" x1="478" x2="478" y1="625.4297" y2="638.3848"/><line style="stroke:#181818;stroke-width:1.0;" x1="479" x2="479" y1="625.4297" y2="638.3848"/><text fill="#000000" font-family="sans-serif" font-size="11" lengthAdjust="spacing" textLength="66" x="10" y="47.6348">cronograma</text><text fill="#000000" font-family="sans-serif" font-size="11" lengthAdjust="spacing" textLength="63" x="6" y="72.5898">completado</text><text fill="#000000" font-family="sans-serif" font-size="11" lengthAdjust="spacing" textLength="23" x="342" y="89.5449">falta</text><text fill="#000000" font-family="sans-serif" font-size="11" lengthAdjust="spacing" textLength="30" x="10" y="114.5">Aulas</text><text fill="#000000" font-family="sans-serif" font-size="11" lengthAdjust="spacing" textLength="35" x="6" y="139.4551">Termo</text><text fill="#000000" font-family="sans-serif" font-size="11" lengthAdjust="spacing" textLength="38" x="6" y="156.4102">Aula01</text><text fill="#000000" font-family="sans-serif" font-size="11" lengthAdjust="spacing" textLength="38" x="34" y="173.3652">Aula02</text><text fill="#000000" font-family="sans-serif" font-size="11" lengthAdjust="spacing" textLength="38" x="62" y="190.3203">Aula03</text><text fill="#000000" font-family="sans-serif" font-size="11" lengthAdjust="spacing" textLength="95" x="66" y="227.875">Pr&#233;-projeto (BCC)</text><text fill="#000000" font-family="sans-serif" font-size="11" lengthAdjust="spacing" textLength="38" x="90" y="244.8301">Aula04</text><text fill="#000000" font-family="sans-serif" font-size="11" lengthAdjust="spacing" textLength="38" x="118" y="261.7852">Aula05</text><text fill="#000000" font-family="sans-serif" font-size="11" lengthAdjust="spacing" textLength="38" x="146" y="278.7402">Aula06</text><text fill="#000000" font-family="sans-serif" font-size="11" lengthAdjust="spacing" textLength="38" x="174" y="295.6953">Aula07</text><text fill="#000000" font-family="sans-serif" font-size="11" lengthAdjust="spacing" textLength="38" x="202" y="312.6504">Aula08</text><text fill="#000000" font-family="sans-serif" font-size="11" lengthAdjust="spacing" textLength="38" x="230" y="329.6055">Aula09</text><text fill="#000000" font-family="sans-serif" font-size="11" lengthAdjust="spacing" textLength="38" x="258" y="367.1602">Aula10</text><text fill="#000000" font-family="sans-serif" font-size="11" lengthAdjust="spacing" textLength="31" x="234" y="384.1152">Banca</text><text fill="#000000" font-family="sans-serif" font-size="11" lengthAdjust="spacing" textLength="38" x="286" y="401.0703">Aula11</text><text fill="#000000" font-family="sans-serif" font-size="11" lengthAdjust="spacing" textLength="38" x="314" y="438.625">Aula12</text><text fill="#000000" font-family="sans-serif" font-size="11" lengthAdjust="spacing" textLength="38" x="342" y="476.1797">Aula13</text><text fill="#000000" font-family="sans-serif" font-size="11" lengthAdjust="spacing" textLength="38" x="346" y="493.1348">Projeto</text><text fill="#000000" font-family="sans-serif" font-size="11" lengthAdjust="spacing" textLength="38" x="370" y="510.0898">Aula14</text><text fill="#000000" font-family="sans-serif" font-size="11" lengthAdjust="spacing" textLength="38" x="398" y="527.0449">Aula15</text><text fill="#000000" font-family="sans-serif" font-size="11" lengthAdjust="spacing" textLength="38" x="426" y="544">Aula16</text><text fill="#000000" font-family="sans-serif" font-size="11" lengthAdjust="spacing" textLength="38" x="454" y="560.9551">Aula17</text><text fill="#000000" font-family="sans-serif" font-size="11" lengthAdjust="spacing" textLength="25" x="482" y="598.5098">Final</text><text fill="#000000" font-family="sans-serif" font-size="11" lengthAdjust="spacing" textLength="38" x="482" y="636.0645">Aula18</text><line style="stroke:#C0C0C0;stroke-width:1.0;" x1="0" x2="480" y1="640.3848" y2="640.3848"/><line style="stroke:#C0C0C0;stroke-width:1.0;" x1="0" x2="0" y1="640.3848" y2="656.3848"/><line style="stroke:#C0C0C0;stroke-width:1.0;" x1="12" x2="12" y1="640.3848" y2="656.3848"/><text fill="#000000" font-family="sans-serif" font-size="12" font-weight="bold" lengthAdjust="spacing" textLength="22" x="0" y="651.9863">Feb</text><line style="stroke:#C0C0C0;stroke-width:1.0;" x1="136" x2="136" y1="640.3848" y2="656.3848"/><text fill="#000000" font-family="sans-serif" font-size="12" font-weight="bold" lengthAdjust="spacing" textLength="59" x="44.5" y="651.9863">Mar 2024</text><line style="stroke:#C0C0C0;stroke-width:1.0;" x1="256" x2="256" y1="640.3848" y2="656.3848"/><text fill="#000000" font-family="sans-serif" font-size="12" font-weight="bold" lengthAdjust="spacing" textLength="58" x="167" y="651.9863">Apr 2024</text><line style="stroke:#C0C0C0;stroke-width:1.0;" x1="380" x2="380" y1="640.3848" y2="656.3848"/><text fill="#000000" font-family="sans-serif" font-size="12" font-weight="bold" lengthAdjust="spacing" textLength="61" x="287.5" y="651.9863">May 2024</text><line style="stroke:#C0C0C0;stroke-width:1.0;" x1="480" x2="480" y1="640.3848" y2="656.3848"/><text fill="#000000" font-family="sans-serif" font-size="12" font-weight="bold" lengthAdjust="spacing" textLength="57" x="401.5" y="651.9863">Jun 2024</text><line style="stroke:#C0C0C0;stroke-width:1.0;" x1="0" x2="480" y1="656.3848" y2="656.3848"/><!--SRC=[nLZTRjis6Bqsdu8h1YIvK2pAjYmR6D3yDCEo134ojpT6CT0Iwx2LgK2aN6HliwjX3x0do8ljayH892LdHPjjDu75SxuVaeSwL5vBHNEreK8f7EUPo3OvtT9VJy_E41eUB6_ER-POCG4aN4ZuiwCvV_nznxZ4IOObbufjwHpVANKlvyFXEiqsnn-JdE-OE8wpxJ3moNJea-5z2YMARUhTfunA-2sOb5uXkTXuSP7dKC9Bg693Z0-6K9cgWgRyDvh3qtVV0q9_4Zpc6Vu1lne4VZ3s_C0BfeDN6htWMsnWeHTCAkoaIAbF035o30PFG624Z3pV21bP20bQP6mZinQPM4WGjaXe86NdBJAr4IDRP274o3Qpa63K8CIta97V8iH09fu_RP70GiYuHKOM4f0M6Tj8r28JQnDy8rje8SJ8DhKH8rkqRqihv6dZOJ-r2avArPGwq1DmX8GgdSkOfWn_PknJ-e3G8iy-ibZXwXn8KoO8UPvn9Z0yeHLe6XIiQ9Aznt06uYpDSfPWBl0cPqpOX6vEJ4M2cKZqODKlMdsWgQ8slPw9pOQfDboxzZejMDLkEMrPTxfa-RRJv2rB6gIffyz8Mwm-0MXL0-__WKWqCN28WKiCD77a44VTqY9J3AypfR8jUYDKpZRmagdwnWd3Px36URRbKcO8md39Hgj5_lYdTrzkfyhm8Rp1ZfewL64zwmDP5ked6ntCTAjZfzMns-fO4oSESU8I9veOEiJG9OQQE7M8KvSurSJ88KOkCTB4cKESkSHP_xftrmeRorw_UEpKy2AoKnCVhKwfYAcr9JsRKEyF_ipLNNsYS4Bb7OWtvU9JayD8h6LA79aILwQ4M9Eh4iazit6KJ5mba-3BSpbY9wxOomaiwYMmrgQUgRaSyGDrLgE9Cz9fLH17kSHLBj7A9OvoYQjSefLB7EKILxb4AvSuoYMkSg77FJghbM0iuGKND7KqKy_PN9dozMUlZ8upQaPMpPCTc09z_EFnBoQRmjBTE-Ta4VTaGLBq6XuhMu6VpzobliHxp7lDYvcFcRHjttHrrtzCh1DHkV2_uKBFzbdTm3f-z6n8lOgkCvbtlPug_cJGyIYpXJsD_NzkPTu2EvPbNbBxEfyDEkPbtbvxGc2qOsFcjROJKers3Csyx_Q5D8r5tH0IzeMGfh5PDmJMfYUaNB5ljplpijrJ14PVtlZim-kudtd7xpdlCFerFcX-7_HaXT6lSSHdtpHwUY_ZZURNHSSWpG-PlZQQaCuvgRvmUjwHCDenJVFJfoU4D7ivxGc9UaEYmNzgf9O5V8kRcedsE8pfguloVmTlhw_mZkMIPmAJuv9wF3fStXNuWgqnN5f8E1_xSxXtdzukSGaVeSCV5rUx0Ckio6EO5fSgv-j2GOOZT4bt5DyMGl4jc-ERUoOkptz-6i1ln8w3zswPKEZotNLB2CVUALVu5vP3B_ZTDJfd7sYHAeY8iuIBpHo_NLvu4RgYObFG3UG6NpxB86_-C8VU_WO0]--></g></svg>